# MagicaVoxel @ Ephtracy

# group
o 

# material
mtllib rocas-0.mtl
usemtl palette

# normals
vn -1 0 0
vn 1 0 0
vn 0 0 1
vn 0 0 -1
vn 0 -1 0
vn 0 1 0

# texcoords
vt 0.970703 0.5
vt 0.974609 0.5

# verts
v -1 0 1.4
v -1 0 -0.4
v -1 0.6 1.4
v -1 0.6 -0.4
v -0.9 0 -0.4
v -0.9 0 -0.6
v -0.9 0.6 -0.4
v -0.9 0.6 -0.6
v -0.8 0 -0.6
v -0.8 0 -0.8
v -0.8 0.6 -0.6
v -0.8 0.6 -0.8
v -0.7 0.6 1.3
v -0.7 0.6 0.2
v -0.7 1.1 1.3
v -0.7 1.1 1.2
v -0.7 1.5 1.2
v -0.7 1.5 0.2
v -0.6 0 -0.8
v -0.6 0 -0.9
v -0.6 0.6 0.2
v -0.6 0.6 0
v -0.6 0.6 -0.8
v -0.6 0.6 -0.9
v -0.6 1.1 0.2
v -0.6 1.1 0
v -0.6 1.5 1.1
v -0.6 1.5 0.3
v -0.6 1.6 1.1
v -0.6 1.6 0.3
v -0.5 0.6 0
v -0.5 0.6 -0.2
v -0.5 1.1 0.2
v -0.5 1.1 0
v -0.5 1.2 -0.2
v -0.5 1.2 -0.3
v -0.5 1.3 -0.3
v -0.5 1.3 -0.4
v -0.5 1.5 1.2
v -0.5 1.5 1.1
v -0.5 1.5 0.2
v -0.5 1.5 -0.4
v -0.5 1.6 1.2
v -0.5 1.6 1.1
v -0.4 0 1.8
v -0.4 0 1.4
v -0.4 0 -0.9
v -0.4 0 -1
v -0.4 0.4 1.8
v -0.4 0.4 1.4
v -0.4 0.6 -0.2
v -0.4 0.6 -0.6
v -0.4 0.6 -0.9
v -0.4 0.6 -1
v -0.4 1.2 -0.2
v -0.4 1.2 -0.3
v -0.4 1.3 -0.3
v -0.4 1.3 -0.4
v -0.4 1.5 -0.4
v -0.4 1.5 -0.6
v -0.3 0.4 1.8
v -0.3 0.4 1.4
v -0.3 0.6 1.8
v -0.3 0.6 1.4
v -0.3 1.5 0.3
v -0.3 1.5 -0.5
v -0.3 1.6 0.3
v -0.3 1.6 -0.5
v -0.0999999 0 -1
v -0.0999999 0 -1.1
v -0.0999999 0.6 -1
v -0.0999999 0.6 -1.1
v -0.0999999 1.6 0.8
v -0.0999999 1.6 0.0999999
v -0.0999999 1.8 0.8
v -0.0999999 1.8 0.0999999
v 1.19209e-007 1.6 0.9
v 1.19209e-007 1.6 0.8
v 1.19209e-007 1.6 0.0999999
v 1.19209e-007 1.6 0
v 1.19209e-007 1.8 0.9
v 1.19209e-007 1.8 0.8
v 1.19209e-007 1.8 0.0999999
v 1.19209e-007 1.8 0
v 0.1 1.6 0
v 0.1 1.6 -0.2
v 0.1 1.8 0
v 0.1 1.8 -0.2
v 0.2 0.6 1.8
v 0.2 0.6 1.3
v 0.2 0.6 -0.6
v 0.2 0.6 -1
v 0.2 0.7 1.8
v 0.2 0.7 1.3
v 0.2 0.7 -0.6
v 0.2 0.7 -1
v 0.6 1.6 0.9
v 0.6 1.6 0.8
v 0.6 1.8 0.9
v 0.6 1.8 0.8
v 0.7 0 -1
v 0.7 0 -1.1
v 0.7 0.6 1.8
v 0.7 0.6 1.3
v 0.7 0.6 -1
v 0.7 0.6 -1.1
v 0.7 0.7 1.8
v 0.7 0.7 1.3
v 0.7 1.6 0.8
v 0.7 1.6 0.7
v 0.7 1.6 0.2
v 0.7 1.6 -0.2
v 0.7 1.8 0.8
v 0.7 1.8 0.7
v 0.7 1.8 0.2
v 0.7 1.8 -0.2
v 0.8 0.5 1.8
v 0.8 0.5 1.3
v 0.8 0.6 1.8
v 0.8 0.6 1.3
v 0.8 0.7 -0.5
v 0.8 0.7 -0.6
v 0.8 1.1 0.0999999
v 0.8 1.1 -0.5
v 0.8 1.5 -0.5
v 0.8 1.5 -0.6
v 0.8 1.6 0.7
v 0.8 1.6 0.2
v 0.8 1.6 0.0999999
v 0.8 1.6 -0.5
v 0.8 1.8 0.7
v 0.8 1.8 0.2
v 0.9 0 1.8
v 0.9 0 1.3
v 0.9 0 -0.5
v 0.9 0 -0.6
v 0.9 0 -0.8
v 0.9 0 -1
v 0.9 0.5 1.8
v 0.9 0.5 1.3
v 0.9 0.7 -0.5
v 0.9 0.7 -0.6
v 0.9 0.7 -0.8
v 0.9 0.7 -1
v 0.9 1.1 1.2
v 0.9 1.1 0.2
v 0.9 1.1 0.0999999
v 0.9 1.6 1.2
v 0.9 1.6 0.2
v 0.9 1.6 0.0999999
v 1 0 -0.6
v 1 0 -0.8
v 1 0.7 -0.6
v 1 0.7 -0.8
v 1 1 1.3
v 1 1 -0.5
v 1 1.1 1.3
v 1 1.1 -0.5
v 1.1 0 1.3
v 1.1 0 1.2
v 1.1 0 -0.3
v 1.1 0 -0.5
v 1.1 0.6 1.2
v 1.1 0.6 -0.3
v 1.1 1 1.3
v 1.1 1 -0.5
v 1.4 0 1.2
v 1.4 0 -0.3
v 1.4 0.6 1.2
v 1.4 0.6 -0.3
v -0.4 0 1.8
v -0.4 0.4 1.8
v -0.3 0.4 1.8
v -0.3 0.6 1.8
v 0.2 0.6 1.8
v 0.2 0.7 1.8
v 0.7 0.6 1.8
v 0.7 0.7 1.8
v 0.8 0.5 1.8
v 0.8 0.6 1.8
v 0.9 0 1.8
v 0.9 0.5 1.8
v -1 0 1.4
v -1 0.6 1.4
v -0.4 0 1.4
v -0.4 0.4 1.4
v -0.3 0.4 1.4
v -0.3 0.6 1.4
v -0.7 0.6 1.3
v -0.7 1.1 1.3
v 0.2 0.6 1.3
v 0.2 0.7 1.3
v 0.7 0.6 1.3
v 0.7 0.7 1.3
v 0.8 0.5 1.3
v 0.8 0.6 1.3
v 0.9 0 1.3
v 0.9 0.5 1.3
v 1 1 1.3
v 1 1.1 1.3
v 1.1 0 1.3
v 1.1 1 1.3
v -0.7 1.1 1.2
v -0.7 1.5 1.2
v -0.5 1.5 1.2
v -0.5 1.6 1.2
v 0.9 1.1 1.2
v 0.9 1.6 1.2
v 1.1 0 1.2
v 1.1 0.6 1.2
v 1.4 0 1.2
v 1.4 0.6 1.2
v -0.6 1.5 1.1
v -0.6 1.6 1.1
v -0.5 1.5 1.1
v -0.5 1.6 1.1
v 1.19209e-007 1.6 0.9
v 1.19209e-007 1.8 0.9
v 0.6 1.6 0.9
v 0.6 1.8 0.9
v -0.0999999 1.6 0.8
v -0.0999999 1.8 0.8
v 1.19209e-007 1.6 0.8
v 1.19209e-007 1.8 0.8
v 0.6 1.6 0.8
v 0.6 1.8 0.8
v 0.7 1.6 0.8
v 0.7 1.8 0.8
v 0.7 1.6 0.7
v 0.7 1.8 0.7
v 0.8 1.6 0.7
v 0.8 1.8 0.7
v 0.9 0 -0.6
v 0.9 0.7 -0.6
v 1 0 -0.6
v 1 0.7 -0.6
v -0.6 1.5 0.3
v -0.6 1.6 0.3
v -0.3 1.5 0.3
v -0.3 1.6 0.3
v -0.7 0.6 0.2
v -0.7 1.5 0.2
v -0.6 0.6 0.2
v -0.6 1.1 0.2
v -0.5 1.1 0.2
v -0.5 1.5 0.2
v 0.7 1.6 0.2
v 0.7 1.8 0.2
v 0.8 1.6 0.2
v 0.8 1.8 0.2
v -0.0999999 1.6 0.0999999
v -0.0999999 1.8 0.0999999
v 1.19209e-007 1.6 0.0999999
v 1.19209e-007 1.8 0.0999999
v 0.8 1.1 0.0999999
v 0.8 1.6 0.0999999
v 0.9 1.1 0.0999999
v 0.9 1.6 0.0999999
v -0.6 0.6 0
v -0.6 1.1 0
v -0.5 0.6 0
v -0.5 1.1 0
v 1.19209e-007 1.6 0
v 1.19209e-007 1.8 0
v 0.1 1.6 0
v 0.1 1.8 0
v -0.5 0.6 -0.2
v -0.5 1.2 -0.2
v -0.4 0.6 -0.2
v -0.4 1.2 -0.2
v 0.1 1.6 -0.2
v 0.1 1.8 -0.2
v 0.7 1.6 -0.2
v 0.7 1.8 -0.2
v -0.5 1.2 -0.3
v -0.5 1.3 -0.3
v -0.4 1.2 -0.3
v -0.4 1.3 -0.3
v 1.1 0 -0.3
v 1.1 0.6 -0.3
v 1.4 0 -0.3
v 1.4 0.6 -0.3
v -1 0 -0.4
v -1 0.6 -0.4
v -0.9 0 -0.4
v -0.9 0.6 -0.4
v -0.5 1.3 -0.4
v -0.5 1.5 -0.4
v -0.4 1.3 -0.4
v -0.4 1.5 -0.4
v -0.3 1.5 -0.5
v -0.3 1.6 -0.5
v 0.8 0.7 -0.5
v 0.8 1.1 -0.5
v 0.8 1.5 -0.5
v 0.8 1.6 -0.5
v 0.9 0 -0.5
v 0.9 0.7 -0.5
v 1 1 -0.5
v 1 1.1 -0.5
v 1.1 0 -0.5
v 1.1 1 -0.5
v -0.9 0 -0.6
v -0.9 0.6 -0.6
v -0.8 0 -0.6
v -0.8 0.6 -0.6
v -0.4 0.6 -0.6
v -0.4 1.5 -0.6
v 0.2 0.6 -0.6
v 0.2 0.7 -0.6
v 0.8 0.7 -0.6
v 0.8 1.5 -0.6
v -0.8 0 -0.8
v -0.8 0.6 -0.8
v -0.6 0 -0.8
v -0.6 0.6 -0.8
v 0.9 0 -0.8
v 0.9 0.7 -0.8
v 1 0 -0.8
v 1 0.7 -0.8
v -0.6 0 -0.9
v -0.6 0.6 -0.9
v -0.4 0 -0.9
v -0.4 0.6 -0.9
v -0.4 0 -1
v -0.4 0.6 -1
v -0.0999999 0 -1
v -0.0999999 0.6 -1
v 0.2 0.6 -1
v 0.2 0.7 -1
v 0.7 0 -1
v 0.7 0.6 -1
v 0.9 0 -1
v 0.9 0.7 -1
v -0.0999999 0 -1.1
v -0.0999999 0.6 -1.1
v 0.7 0 -1.1
v 0.7 0.6 -1.1
v -0.4 0 1.8
v 0.9 0 1.8
v -0.3 0 1.7
v 0.8 0 1.7
v -1 0 1.4
v -0.4 0 1.4
v -0.3 0 1.4
v -0.9 0 1.3
v -0.4 0 1.3
v 0.8 0 1.3
v 0.9 0 1.3
v 1.1 0 1.3
v 1.1 0 1.2
v 1.4 0 1.2
v 1.1 0 1.1
v 1.3 0 1.1
v 1.1 0 -0.2
v 1.3 0 -0.2
v 1.1 0 -0.3
v 1.4 0 -0.3
v -1 0 -0.4
v -0.9 0 -0.4
v -0.8 0 -0.4
v 0.8 0 -0.5
v 0.9 0 -0.5
v 1.1 0 -0.5
v -0.9 0 -0.6
v -0.8 0 -0.6
v -0.7 0 -0.6
v 0.8 0 -0.6
v 0.9 0 -0.6
v 1 0 -0.6
v -0.7 0 -0.7
v -0.6 0 -0.7
v -0.8 0 -0.8
v -0.6 0 -0.8
v -0.4 0 -0.8
v 0.8 0 -0.8
v 0.9 0 -0.8
v 1 0 -0.8
v -0.6 0 -0.9
v -0.4 0 -0.9
v -0.0999999 0 -0.9
v 0.7 0 -0.9
v 0.8 0 -0.9
v -0.4 0 -1
v -0.0999999 0 -1
v 0.7 0 -1
v 0.9 0 -1
v -0.0999999 0 -1.1
v 0.7 0 -1.1
v -0.5 1.2 -0.2
v -0.4 1.2 -0.2
v -0.5 1.2 -0.3
v -0.4 1.2 -0.3
v -0.5 1.3 -0.3
v -0.4 1.3 -0.3
v -0.5 1.3 -0.4
v -0.4 1.3 -0.4
v -0.4 0.4 1.8
v -0.3 0.4 1.8
v -0.4 0.4 1.4
v -0.3 0.4 1.4
v 0.8 0.5 1.8
v 0.9 0.5 1.8
v 0.8 0.5 1.3
v 0.9 0.5 1.3
v -0.3 0.6 1.8
v 0.2 0.6 1.8
v 0.7 0.6 1.8
v 0.8 0.6 1.8
v -1 0.6 1.4
v -0.3 0.6 1.4
v -0.7 0.6 1.3
v 0.2 0.6 1.3
v 0.7 0.6 1.3
v 0.8 0.6 1.3
v 1.1 0.6 1.2
v 1.4 0.6 1.2
v -0.7 0.6 0.2
v -0.6 0.6 0.2
v -0.6 0.6 0
v -0.5 0.6 0
v -0.5 0.6 -0.2
v -0.4 0.6 -0.2
v 1.1 0.6 -0.3
v 1.4 0.6 -0.3
v -1 0.6 -0.4
v -0.9 0.6 -0.4
v -0.9 0.6 -0.6
v -0.8 0.6 -0.6
v -0.4 0.6 -0.6
v 0.2 0.6 -0.6
v -0.8 0.6 -0.8
v -0.6 0.6 -0.8
v -0.6 0.6 -0.9
v -0.4 0.6 -0.9
v -0.4 0.6 -1
v -0.0999999 0.6 -1
v 0.2 0.6 -1
v 0.7 0.6 -1
v -0.0999999 0.6 -1.1
v 0.7 0.6 -1.1
v 0.2 0.7 1.8
v 0.7 0.7 1.8
v 0.2 0.7 1.3
v 0.7 0.7 1.3
v 0.8 0.7 -0.5
v 0.9 0.7 -0.5
v 0.2 0.7 -0.6
v 0.8 0.7 -0.6
v 0.9 0.7 -0.6
v 1 0.7 -0.6
v 0.9 0.7 -0.8
v 1 0.7 -0.8
v 0.2 0.7 -1
v 0.9 0.7 -1
v 1 1 1.3
v 1.1 1 1.3
v 1 1 -0.5
v 1.1 1 -0.5
v -0.7 1.1 1.3
v 1 1.1 1.3
v -0.7 1.1 1.2
v 0.9 1.1 1.2
v -0.6 1.1 0.2
v -0.5 1.1 0.2
v 0.9 1.1 0.2
v 0.8 1.1 0.0999999
v 0.9 1.1 0.0999999
v -0.6 1.1 0
v -0.5 1.1 0
v 0.8 1.1 -0.5
v 1 1.1 -0.5
v -0.7 1.5 1.2
v -0.5 1.5 1.2
v -0.6 1.5 1.1
v -0.5 1.5 1.1
v -0.6 1.5 0.3
v -0.3 1.5 0.3
v -0.7 1.5 0.2
v -0.5 1.5 0.2
v -0.5 1.5 -0.4
v -0.4 1.5 -0.4
v -0.3 1.5 -0.5
v 0.8 1.5 -0.5
v -0.4 1.5 -0.6
v 0.8 1.5 -0.6
v -0.5 1.6 1.2
v 0.9 1.6 1.2
v -0.6 1.6 1.1
v -0.5 1.6 1.1
v 1.19209e-007 1.6 0.9
v 0.6 1.6 0.9
v -0.0999999 1.6 0.8
v 1.19209e-007 1.6 0.8
v 0.6 1.6 0.8
v 0.7 1.6 0.8
v 0.7 1.6 0.7
v 0.8 1.6 0.7
v -0.6 1.6 0.3
v -0.3 1.6 0.3
v 0.7 1.6 0.2
v 0.8 1.6 0.2
v 0.9 1.6 0.2
v -0.0999999 1.6 0.0999999
v 1.19209e-007 1.6 0.0999999
v 0.8 1.6 0.0999999
v 0.9 1.6 0.0999999
v 1.19209e-007 1.6 0
v 0.1 1.6 0
v 0.1 1.6 -0.2
v 0.7 1.6 -0.2
v -0.3 1.6 -0.5
v 0.8 1.6 -0.5
v 1.19209e-007 1.8 0.9
v 0.6 1.8 0.9
v -0.0999999 1.8 0.8
v 1.19209e-007 1.8 0.8
v 0.6 1.8 0.8
v 0.7 1.8 0.8
v 0.7 1.8 0.7
v 0.8 1.8 0.7
v 0.7 1.8 0.2
v 0.8 1.8 0.2
v -0.0999999 1.8 0.0999999
v 1.19209e-007 1.8 0.0999999
v 1.19209e-007 1.8 0
v 0.1 1.8 0
v 0.1 1.8 -0.2
v 0.7 1.8 -0.2

# faces
f 3/2/1 2/2/1 1/2/1
f 4/2/1 2/2/1 3/2/1
f 7/2/1 6/2/1 5/2/1
f 8/2/1 6/2/1 7/2/1
f 11/2/1 10/2/1 9/2/1
f 12/2/1 10/2/1 11/2/1
f 15/1/1 14/1/1 13/1/1
f 16/1/1 14/1/1 15/1/1
f 17/1/1 14/1/1 16/1/1
f 18/1/1 14/1/1 17/1/1
f 23/2/1 20/2/1 19/2/1
f 24/2/1 20/2/1 23/2/1
f 25/1/1 22/1/1 21/1/1
f 26/1/1 22/1/1 25/1/1
f 29/1/1 28/1/1 27/1/1
f 30/1/1 28/1/1 29/1/1
f 34/1/1 32/1/1 31/1/1
f 35/1/1 32/1/1 34/1/1
f 35/1/1 34/1/1 33/1/1
f 37/1/1 36/1/1 35/1/1
f 41/1/1 35/1/1 33/1/1
f 41/1/1 37/1/1 35/1/1
f 41/1/1 38/1/1 37/1/1
f 42/1/1 38/1/1 41/1/1
f 43/1/1 40/1/1 39/1/1
f 44/1/1 40/1/1 43/1/1
f 49/2/1 46/2/1 45/2/1
f 50/2/1 46/2/1 49/2/1
f 53/2/1 48/2/1 47/2/1
f 54/2/1 48/2/1 53/2/1
f 55/1/1 52/1/1 51/1/1
f 56/1/1 52/1/1 55/1/1
f 57/1/1 52/1/1 56/1/1
f 58/1/1 52/1/1 57/1/1
f 59/1/1 52/1/1 58/1/1
f 60/1/1 52/1/1 59/1/1
f 63/2/1 62/2/1 61/2/1
f 64/2/1 62/2/1 63/2/1
f 67/1/1 66/1/1 65/1/1
f 68/1/1 66/1/1 67/1/1
f 71/2/1 70/2/1 69/2/1
f 72/2/1 70/2/1 71/2/1
f 75/2/1 74/2/1 73/2/1
f 76/2/1 74/2/1 75/2/1
f 81/2/1 78/2/1 77/2/1
f 82/2/1 78/2/1 81/2/1
f 83/2/1 80/2/1 79/2/1
f 84/2/1 80/2/1 83/2/1
f 87/2/1 86/2/1 85/2/1
f 88/2/1 86/2/1 87/2/1
f 93/2/1 90/2/1 89/2/1
f 94/2/1 90/2/1 93/2/1
f 95/2/1 92/2/1 91/2/1
f 96/2/1 92/2/1 95/2/1
f 97/2/2 98/2/2 99/2/2
f 99/2/2 98/2/2 100/2/2
f 101/2/2 102/2/2 105/2/2
f 105/2/2 102/2/2 106/2/2
f 103/2/2 104/2/2 107/2/2
f 107/2/2 104/2/2 108/2/2
f 109/2/2 110/2/2 113/2/2
f 113/2/2 110/2/2 114/2/2
f 111/2/2 112/2/2 115/2/2
f 115/2/2 112/2/2 116/2/2
f 117/2/2 118/2/2 119/2/2
f 119/2/2 118/2/2 120/2/2
f 121/1/2 122/1/2 124/1/2
f 124/1/2 122/1/2 125/1/2
f 123/1/2 124/1/2 125/1/2
f 125/1/2 122/1/2 126/1/2
f 123/1/2 125/1/2 129/1/2
f 129/1/2 125/1/2 130/1/2
f 127/2/2 128/2/2 131/2/2
f 131/2/2 128/2/2 132/2/2
f 133/2/2 134/2/2 139/2/2
f 139/2/2 134/2/2 140/2/2
f 135/2/2 136/2/2 141/2/2
f 141/2/2 136/2/2 142/2/2
f 137/2/2 138/2/2 143/2/2
f 143/2/2 138/2/2 144/2/2
f 145/1/2 146/1/2 148/1/2
f 146/2/2 147/2/2 149/2/2
f 148/1/2 146/1/2 149/1/2
f 149/2/2 147/2/2 150/2/2
f 151/2/2 152/2/2 153/2/2
f 153/2/2 152/2/2 154/2/2
f 155/1/2 156/1/2 157/1/2
f 157/1/2 156/1/2 158/1/2
f 159/1/2 160/1/2 163/1/2
f 161/1/2 162/1/2 164/1/2
f 159/1/2 163/1/2 165/1/2
f 163/1/2 164/1/2 165/1/2
f 164/1/2 162/1/2 166/1/2
f 165/1/2 164/1/2 166/1/2
f 167/2/2 168/2/2 169/2/2
f 169/2/2 168/2/2 170/2/2
f 173/2/3 172/2/3 171/2/3
f 175/2/3 174/2/3 173/2/3
f 177/2/3 175/2/3 173/2/3
f 177/2/3 176/2/3 175/2/3
f 178/2/3 176/2/3 177/2/3
f 179/2/3 177/2/3 173/2/3
f 180/2/3 177/2/3 179/2/3
f 181/2/3 173/2/3 171/2/3
f 181/2/3 179/2/3 173/2/3
f 182/2/3 179/2/3 181/2/3
f 185/2/3 184/2/3 183/2/3
f 186/2/3 184/2/3 185/2/3
f 187/2/3 184/2/3 186/2/3
f 188/2/3 184/2/3 187/2/3
f 191/1/3 190/1/3 189/1/3
f 192/1/3 190/1/3 191/1/3
f 194/1/3 190/1/3 192/1/3
f 196/1/3 194/1/3 193/1/3
f 198/1/3 196/1/3 195/1/3
f 199/1/3 190/1/3 194/1/3
f 199/1/3 198/1/3 197/1/3
f 199/1/3 196/1/3 198/1/3
f 199/1/3 194/1/3 196/1/3
f 200/1/3 190/1/3 199/1/3
f 201/1/3 199/1/3 197/1/3
f 202/1/3 199/1/3 201/1/3
f 205/1/3 204/1/3 203/1/3
f 207/1/3 205/1/3 203/1/3
f 207/1/3 206/1/3 205/1/3
f 208/1/3 206/1/3 207/1/3
f 211/2/3 210/2/3 209/2/3
f 212/2/3 210/2/3 211/2/3
f 215/1/3 214/1/3 213/1/3
f 216/1/3 214/1/3 215/1/3
f 219/2/3 218/2/3 217/2/3
f 220/2/3 218/2/3 219/2/3
f 223/2/3 222/2/3 221/2/3
f 224/2/3 222/2/3 223/2/3
f 227/2/3 226/2/3 225/2/3
f 228/2/3 226/2/3 227/2/3
f 231/2/3 230/2/3 229/2/3
f 232/2/3 230/2/3 231/2/3
f 235/2/3 234/2/3 233/2/3
f 236/2/3 234/2/3 235/2/3
f 237/1/4 238/1/4 239/1/4
f 239/1/4 238/1/4 240/1/4
f 241/1/4 242/1/4 243/1/4
f 243/1/4 242/1/4 244/1/4
f 244/1/4 242/1/4 245/1/4
f 245/1/4 242/1/4 246/1/4
f 247/2/4 248/2/4 249/2/4
f 249/2/4 248/2/4 250/2/4
f 251/2/4 252/2/4 253/2/4
f 253/2/4 252/2/4 254/2/4
f 255/2/4 256/2/4 257/2/4
f 257/2/4 256/2/4 258/2/4
f 259/1/4 260/1/4 261/1/4
f 261/1/4 260/1/4 262/1/4
f 263/2/4 264/2/4 265/2/4
f 265/2/4 264/2/4 266/2/4
f 267/1/4 268/1/4 269/1/4
f 269/1/4 268/1/4 270/1/4
f 271/2/4 272/2/4 273/2/4
f 273/2/4 272/2/4 274/2/4
f 275/1/4 276/1/4 277/1/4
f 277/1/4 276/1/4 278/1/4
f 279/2/4 280/2/4 281/2/4
f 281/2/4 280/2/4 282/2/4
f 283/2/4 284/2/4 285/2/4
f 285/2/4 284/2/4 286/2/4
f 287/1/4 288/1/4 289/1/4
f 289/1/4 288/1/4 290/1/4
f 291/1/4 292/1/4 295/1/4
f 295/1/4 292/1/4 296/1/4
f 293/1/4 294/1/4 298/1/4
f 298/1/4 294/1/4 299/1/4
f 297/1/4 298/1/4 299/1/4
f 299/1/4 294/1/4 300/1/4
f 297/1/4 299/1/4 301/1/4
f 301/1/4 299/1/4 302/1/4
f 303/2/4 304/2/4 305/2/4
f 305/2/4 304/2/4 306/2/4
f 307/1/4 308/1/4 309/1/4
f 309/1/4 308/1/4 310/1/4
f 310/1/4 308/1/4 311/1/4
f 311/1/4 308/1/4 312/1/4
f 313/2/4 314/2/4 315/2/4
f 315/2/4 314/2/4 316/2/4
f 317/2/4 318/2/4 319/2/4
f 319/2/4 318/2/4 320/2/4
f 321/2/4 322/2/4 323/2/4
f 323/2/4 322/2/4 324/2/4
f 325/2/4 326/2/4 327/2/4
f 327/2/4 326/2/4 328/2/4
f 329/2/4 330/2/4 332/2/4
f 331/2/4 332/2/4 333/2/4
f 332/2/4 330/2/4 334/2/4
f 333/2/4 332/2/4 334/2/4
f 335/2/4 336/2/4 337/2/4
f 337/2/4 336/2/4 338/2/4
f 341/2/5 340/2/5 339/2/5
f 342/2/5 340/2/5 341/2/5
f 344/2/5 341/2/5 339/2/5
f 345/1/5 342/1/5 341/1/5
f 345/2/5 341/2/5 344/2/5
f 346/2/5 344/2/5 343/2/5
f 347/1/5 345/1/5 344/1/5
f 347/2/5 344/2/5 346/2/5
f 348/2/5 340/2/5 342/2/5
f 348/1/5 345/1/5 347/1/5
f 348/1/5 342/1/5 345/1/5
f 349/2/5 340/2/5 348/2/5
f 351/1/5 347/1/5 346/1/5
f 351/1/5 350/1/5 349/1/5
f 351/1/5 349/1/5 348/1/5
f 351/1/5 348/1/5 347/1/5
f 353/1/5 351/1/5 346/1/5
f 353/2/5 352/2/5 351/2/5
f 354/2/5 352/2/5 353/2/5
f 355/1/5 353/1/5 346/1/5
f 355/1/5 354/1/5 353/1/5
f 356/2/5 352/2/5 354/2/5
f 356/1/5 354/1/5 355/1/5
f 357/1/5 355/1/5 346/1/5
f 357/2/5 356/2/5 355/2/5
f 358/2/5 352/2/5 356/2/5
f 358/2/5 356/2/5 357/2/5
f 359/2/5 346/2/5 343/2/5
f 360/1/5 357/1/5 346/1/5
f 360/2/5 346/2/5 359/2/5
f 361/1/5 357/1/5 360/1/5
f 362/1/5 357/1/5 361/1/5
f 363/1/5 357/1/5 362/1/5
f 364/1/5 357/1/5 363/1/5
f 365/2/5 361/2/5 360/2/5
f 366/1/5 362/1/5 361/1/5
f 366/2/5 361/2/5 365/2/5
f 367/1/5 362/1/5 366/1/5
f 368/2/5 363/2/5 362/2/5
f 368/1/5 362/1/5 367/1/5
f 369/2/5 363/2/5 368/2/5
f 371/2/5 367/2/5 366/2/5
f 371/1/5 369/1/5 368/1/5
f 371/1/5 368/1/5 367/1/5
f 372/1/5 369/1/5 371/1/5
f 373/2/5 371/2/5 366/2/5
f 373/2/5 372/2/5 371/2/5
f 374/1/5 369/1/5 372/1/5
f 374/2/5 372/2/5 373/2/5
f 375/1/5 369/1/5 374/1/5
f 376/1/5 369/1/5 375/1/5
f 377/2/5 370/2/5 369/2/5
f 377/1/5 369/1/5 376/1/5
f 378/2/5 370/2/5 377/2/5
f 379/2/5 375/2/5 374/2/5
f 380/1/5 376/1/5 375/1/5
f 380/2/5 375/2/5 379/2/5
f 381/1/5 376/1/5 380/1/5
f 382/1/5 376/1/5 381/1/5
f 383/2/5 377/2/5 376/2/5
f 383/1/5 376/1/5 382/1/5
f 384/2/5 381/2/5 380/2/5
f 385/1/5 382/1/5 381/1/5
f 385/2/5 381/2/5 384/2/5
f 386/2/5 383/2/5 382/2/5
f 386/1/5 382/1/5 385/1/5
f 387/2/5 377/2/5 383/2/5
f 387/2/5 383/2/5 386/2/5
f 388/2/5 386/2/5 385/2/5
f 389/2/5 386/2/5 388/2/5
f 392/1/5 391/1/5 390/1/5
f 393/1/5 391/1/5 392/1/5
f 396/1/5 395/1/5 394/1/5
f 397/1/5 395/1/5 396/1/5
f 398/2/6 399/2/6 400/2/6
f 400/2/6 399/2/6 401/2/6
f 402/2/6 403/2/6 404/2/6
f 404/2/6 403/2/6 405/2/6
f 406/2/6 407/2/6 411/2/6
f 410/2/6 411/2/6 412/2/6
f 411/2/6 407/2/6 413/2/6
f 412/2/6 411/2/6 413/2/6
f 408/2/6 409/2/6 414/2/6
f 414/2/6 409/2/6 415/2/6
f 410/2/6 412/2/6 418/2/6
f 418/2/6 419/2/6 420/2/6
f 420/2/6 421/2/6 422/2/6
f 416/2/6 417/2/6 424/2/6
f 424/2/6 417/2/6 425/2/6
f 422/2/6 423/2/6 426/2/6
f 410/2/6 418/2/6 426/2/6
f 418/2/6 420/2/6 426/2/6
f 420/2/6 422/2/6 426/2/6
f 426/2/6 423/2/6 427/2/6
f 427/2/6 423/2/6 428/2/6
f 428/2/6 423/2/6 429/2/6
f 429/2/6 423/2/6 430/2/6
f 430/2/6 431/2/6 432/2/6
f 429/2/6 430/2/6 432/2/6
f 432/2/6 431/2/6 433/2/6
f 433/2/6 431/2/6 434/2/6
f 434/2/6 431/2/6 435/2/6
f 435/2/6 431/2/6 436/2/6
f 436/2/6 431/2/6 437/2/6
f 437/2/6 431/2/6 438/2/6
f 438/2/6 439/2/6 440/2/6
f 437/2/6 438/2/6 440/2/6
f 440/2/6 439/2/6 441/2/6
f 442/2/6 443/2/6 444/2/6
f 444/2/6 443/2/6 445/2/6
f 446/2/6 447/2/6 449/2/6
f 449/2/6 447/2/6 450/2/6
f 448/2/6 449/2/6 452/2/6
f 450/2/6 451/2/6 452/2/6
f 449/2/6 450/2/6 452/2/6
f 452/2/6 451/2/6 453/2/6
f 448/2/6 452/2/6 454/2/6
f 454/2/6 452/2/6 455/2/6
f 456/1/6 457/1/6 458/1/6
f 458/1/6 457/1/6 459/1/6
f 460/1/6 461/1/6 462/1/6
f 462/1/6 461/1/6 463/1/6
f 463/1/6 461/1/6 466/1/6
f 466/1/6 461/1/6 468/1/6
f 464/1/6 465/1/6 469/1/6
f 469/1/6 465/1/6 470/1/6
f 467/1/6 468/1/6 471/1/6
f 468/1/6 461/1/6 472/1/6
f 471/1/6 468/1/6 472/1/6
f 473/1/6 474/1/6 475/1/6
f 475/1/6 474/1/6 476/1/6
f 473/1/6 475/1/6 477/1/6
f 473/1/6 477/1/6 479/1/6
f 477/1/6 478/1/6 479/1/6
f 479/1/6 478/1/6 480/1/6
f 480/1/6 478/1/6 481/1/6
f 481/1/6 478/1/6 482/1/6
f 482/1/6 478/1/6 483/1/6
f 482/1/6 483/1/6 485/1/6
f 483/1/6 484/1/6 485/1/6
f 485/1/6 484/1/6 486/1/6
f 487/1/6 488/1/6 490/1/6
f 490/1/6 488/1/6 491/1/6
f 489/1/6 490/1/6 491/1/6
f 491/1/6 488/1/6 492/1/6
f 489/1/6 491/1/6 493/1/6
f 493/1/6 491/1/6 494/1/6
f 492/1/6 488/1/6 495/1/6
f 495/1/6 488/1/6 496/1/6
f 496/1/6 488/1/6 497/1/6
f 497/1/6 488/1/6 498/1/6
f 489/1/6 493/1/6 499/1/6
f 499/1/6 493/1/6 500/1/6
f 498/1/6 488/1/6 502/1/6
f 502/1/6 488/1/6 503/1/6
f 500/1/6 493/1/6 504/1/6
f 501/1/6 502/1/6 506/1/6
f 502/2/6 503/2/6 506/2/6
f 506/2/6 503/2/6 507/2/6
f 504/1/6 505/1/6 508/1/6
f 508/1/6 509/1/6 510/1/6
f 501/1/6 506/1/6 511/1/6
f 500/1/6 504/1/6 512/1/6
f 510/1/6 511/1/6 512/1/6
f 508/1/6 510/1/6 512/1/6
f 504/1/6 508/1/6 512/1/6
f 511/1/6 506/1/6 513/1/6
f 512/1/6 511/1/6 513/1/6
f 514/2/6 515/2/6 517/2/6
f 517/2/6 515/2/6 518/2/6
f 516/2/6 517/2/6 520/2/6
f 518/2/6 519/2/6 520/2/6
f 517/2/6 518/2/6 520/2/6
f 516/2/6 520/2/6 522/2/6
f 520/2/6 521/2/6 522/2/6
f 522/2/6 521/2/6 523/2/6
f 516/2/6 522/2/6 524/2/6
f 524/2/6 522/2/6 525/2/6
f 525/2/6 522/2/6 526/2/6
f 526/2/6 522/2/6 527/2/6
f 527/2/6 522/2/6 528/2/6
f 528/2/6 522/2/6 529/2/6
