# MagicaVoxel @ Ephtracy

# group
o 

# material
mtllib bellota.mtl
usemtl palette

# normals
vn -1 0 0
vn 1 0 0
vn 0 0 1
vn 0 0 -1
vn 0 -1 0
vn 0 1 0

# texcoords
vt 0.908203 0.5
vt 0.939453 0.5
vt 0.970703 0.5

# verts
v 1.3 3 -1.4
v 1.3 3 -2.6
v 1.3 3.2 -1.4
v 1.3 3.2 -2.6
v 1.4 2 -1.6
v 1.4 2 -2.4
v 1.4 2.2 -1.5
v 1.4 2.2 -1.6
v 1.4 2.2 -2.4
v 1.4 2.2 -2.5
v 1.4 2.3 -1.5
v 1.4 2.3 -2.5
v 1.4 3 -1.5
v 1.4 3 -2.5
v 1.5 2 -1.5
v 1.5 2 -1.6
v 1.5 2 -2.4
v 1.5 2 -2.5
v 1.5 2.2 -1.5
v 1.5 2.2 -1.6
v 1.5 2.2 -2.4
v 1.5 2.2 -2.5
v 1.8 3.2 -1.9
v 1.8 3.2 -2.1
v 1.8 3.5 -1.9
v 1.8 3.5 -2.1
v 2 3.2 -1.9
v 2 3.2 -2.1
v 2 3.5 -1.9
v 2 3.5 -2.1
v 2.3 2 -1.5
v 2.3 2 -1.6
v 2.3 2 -2.4
v 2.3 2 -2.5
v 2.3 2.2 -1.5
v 2.3 2.2 -1.6
v 2.3 2.2 -2.4
v 2.3 2.2 -2.5
v 2.4 2 -1.6
v 2.4 2 -2.4
v 2.4 2.2 -1.5
v 2.4 2.2 -1.6
v 2.4 2.2 -2.4
v 2.4 2.2 -2.5
v 2.4 2.3 -1.5
v 2.4 2.3 -2.5
v 2.4 3 -1.5
v 2.4 3 -2.5
v 2.5 3 -1.4
v 2.5 3 -2.6
v 2.5 3.2 -1.4
v 2.5 3.2 -2.6
v 1.3 3 -1.4
v 1.3 3.2 -1.4
v 2.5 3 -1.4
v 2.5 3.2 -1.4
v 1.4 2.2 -1.5
v 1.4 2.3 -1.5
v 1.4 3 -1.5
v 1.5 2 -1.5
v 1.5 2.2 -1.5
v 2.3 2 -1.5
v 2.3 2.2 -1.5
v 2.4 2.2 -1.5
v 2.4 2.3 -1.5
v 2.4 3 -1.5
v 1.4 2 -1.6
v 1.4 2.2 -1.6
v 1.5 2 -1.6
v 1.5 2.2 -1.6
v 2.3 2 -1.6
v 2.3 2.2 -1.6
v 2.4 2 -1.6
v 2.4 2.2 -1.6
v 1.8 3.2 -1.9
v 1.8 3.5 -1.9
v 2 3.2 -1.9
v 2 3.5 -1.9
v 1.8 3.2 -2.1
v 1.8 3.5 -2.1
v 2 3.2 -2.1
v 2 3.5 -2.1
v 1.4 2 -2.4
v 1.4 2.2 -2.4
v 1.5 2 -2.4
v 1.5 2.2 -2.4
v 2.3 2 -2.4
v 2.3 2.2 -2.4
v 2.4 2 -2.4
v 2.4 2.2 -2.4
v 1.4 2.2 -2.5
v 1.4 2.3 -2.5
v 1.4 3 -2.5
v 1.5 2 -2.5
v 1.5 2.2 -2.5
v 2.3 2 -2.5
v 2.3 2.2 -2.5
v 2.4 2.2 -2.5
v 2.4 2.3 -2.5
v 2.4 3 -2.5
v 1.3 3 -2.6
v 1.3 3.2 -2.6
v 2.5 3 -2.6
v 2.5 3.2 -2.6
v 1.5 2 -1.5
v 2.3 2 -1.5
v 1.4 2 -1.6
v 1.5 2 -1.6
v 2.3 2 -1.6
v 2.4 2 -1.6
v 1.4 2 -2.4
v 1.5 2 -2.4
v 2.3 2 -2.4
v 2.4 2 -2.4
v 1.5 2 -2.5
v 2.3 2 -2.5
v 1.4 2.2 -1.5
v 1.5 2.2 -1.5
v 2.3 2.2 -1.5
v 2.4 2.2 -1.5
v 1.4 2.2 -1.6
v 1.5 2.2 -1.6
v 2.3 2.2 -1.6
v 2.4 2.2 -1.6
v 1.4 2.2 -2.4
v 1.5 2.2 -2.4
v 2.3 2.2 -2.4
v 2.4 2.2 -2.4
v 1.4 2.2 -2.5
v 1.5 2.2 -2.5
v 2.3 2.2 -2.5
v 2.4 2.2 -2.5
v 1.3 3 -1.4
v 2.5 3 -1.4
v 1.4 3 -1.5
v 2.4 3 -1.5
v 1.4 3 -2.5
v 2.4 3 -2.5
v 1.3 3 -2.6
v 2.5 3 -2.6
v 1.3 3.2 -1.4
v 2.5 3.2 -1.4
v 1.8 3.2 -1.9
v 2 3.2 -1.9
v 1.8 3.2 -2.1
v 2 3.2 -2.1
v 1.3 3.2 -2.6
v 2.5 3.2 -2.6
v 1.8 3.5 -1.9
v 2 3.5 -1.9
v 1.8 3.5 -2.1
v 2 3.5 -2.1

# faces
f 3/2/1 2/2/1 1/2/1
f 4/2/1 2/2/1 3/2/1
f 8/1/1 6/1/1 5/1/1
f 9/1/1 6/1/1 8/1/1
f 11/1/1 8/1/1 7/1/1
f 11/1/1 10/1/1 9/1/1
f 11/1/1 9/1/1 8/1/1
f 12/1/1 10/1/1 11/1/1
f 13/3/1 12/3/1 11/3/1
f 14/3/1 12/3/1 13/3/1
f 19/1/1 16/1/1 15/1/1
f 20/1/1 16/1/1 19/1/1
f 21/1/1 18/1/1 17/1/1
f 22/1/1 18/1/1 21/1/1
f 25/2/1 24/2/1 23/2/1
f 26/2/1 24/2/1 25/2/1
f 27/2/2 28/2/2 29/2/2
f 29/2/2 28/2/2 30/2/2
f 31/1/2 32/1/2 35/1/2
f 35/1/2 32/1/2 36/1/2
f 33/1/2 34/1/2 37/1/2
f 37/1/2 34/1/2 38/1/2
f 39/1/2 40/1/2 42/1/2
f 42/1/2 40/1/2 43/1/2
f 41/1/2 42/1/2 45/1/2
f 43/1/2 44/1/2 45/1/2
f 42/1/2 43/1/2 45/1/2
f 45/1/2 44/1/2 46/1/2
f 45/3/2 46/3/2 47/3/2
f 47/3/2 46/3/2 48/3/2
f 49/2/2 50/2/2 51/2/2
f 51/2/2 50/2/2 52/2/2
f 55/2/3 54/2/3 53/2/3
f 56/2/3 54/2/3 55/2/3
f 61/1/3 58/1/3 57/1/3
f 62/1/3 61/1/3 60/1/3
f 63/1/3 58/1/3 61/1/3
f 63/1/3 61/1/3 62/1/3
f 64/1/3 58/1/3 63/1/3
f 65/3/3 59/3/3 58/3/3
f 65/1/3 58/1/3 64/1/3
f 66/3/3 59/3/3 65/3/3
f 69/1/3 68/1/3 67/1/3
f 70/1/3 68/1/3 69/1/3
f 73/1/3 72/1/3 71/1/3
f 74/1/3 72/1/3 73/1/3
f 77/2/3 76/2/3 75/2/3
f 78/2/3 76/2/3 77/2/3
f 79/2/4 80/2/4 81/2/4
f 81/2/4 80/2/4 82/2/4
f 83/1/4 84/1/4 85/1/4
f 85/1/4 84/1/4 86/1/4
f 87/1/4 88/1/4 89/1/4
f 89/1/4 88/1/4 90/1/4
f 91/1/4 92/1/4 95/1/4
f 94/1/4 95/1/4 96/1/4
f 95/1/4 92/1/4 97/1/4
f 96/1/4 95/1/4 97/1/4
f 97/1/4 92/1/4 98/1/4
f 92/3/4 93/3/4 99/3/4
f 98/1/4 92/1/4 99/1/4
f 99/3/4 93/3/4 100/3/4
f 101/2/4 102/2/4 103/2/4
f 103/2/4 102/2/4 104/2/4
f 108/1/5 106/1/5 105/1/5
f 109/1/5 106/1/5 108/1/5
f 111/1/5 108/1/5 107/1/5
f 111/1/5 110/1/5 109/1/5
f 111/1/5 109/1/5 108/1/5
f 112/1/5 110/1/5 111/1/5
f 113/1/5 110/1/5 112/1/5
f 114/1/5 110/1/5 113/1/5
f 115/1/5 113/1/5 112/1/5
f 116/1/5 113/1/5 115/1/5
f 121/1/5 118/1/5 117/1/5
f 122/1/5 118/1/5 121/1/5
f 123/1/5 120/1/5 119/1/5
f 124/1/5 120/1/5 123/1/5
f 129/1/5 126/1/5 125/1/5
f 130/1/5 126/1/5 129/1/5
f 131/1/5 128/1/5 127/1/5
f 132/1/5 128/1/5 131/1/5
f 135/2/5 134/2/5 133/2/5
f 136/2/5 134/2/5 135/2/5
f 137/2/5 135/2/5 133/2/5
f 138/2/5 134/2/5 136/2/5
f 139/2/5 137/2/5 133/2/5
f 139/2/5 138/2/5 137/2/5
f 140/2/5 134/2/5 138/2/5
f 140/2/5 138/2/5 139/2/5
f 141/2/6 142/2/6 143/2/6
f 143/2/6 142/2/6 144/2/6
f 141/2/6 143/2/6 145/2/6
f 144/2/6 142/2/6 146/2/6
f 141/2/6 145/2/6 147/2/6
f 145/2/6 146/2/6 147/2/6
f 146/2/6 142/2/6 148/2/6
f 147/2/6 146/2/6 148/2/6
f 149/2/6 150/2/6 151/2/6
f 151/2/6 150/2/6 152/2/6
