# MagicaVoxel @ Ephtracy

# group
o 

# material
mtllib ardilla_oscura-0.mtl
usemtl palette

# normals
vn -1 0 0
vn 1 0 0
vn 0 0 1
vn 0 0 -1
vn 0 -1 0
vn 0 1 0

# texcoords
vt 0.0878906 0.5
vt 0.115234 0.5
vt 0.119141 0.5

# verts
v -0.6 0.9 -1.2
v -0.6 0.9 -1.6
v -0.6 1.1 -1.6
v -0.6 1.1 -1.7
v -0.6 1.8 -1.6
v -0.6 1.8 -1.7
v -0.6 1.9 -1.2
v -0.6 1.9 -1.6
v -0.5 0.8 -1.6
v -0.5 0.8 -2
v -0.5 0.9 -0.9
v -0.5 0.9 -1.2
v -0.5 0.9 -1.6
v -0.5 1 -0.8
v -0.5 1 -0.9
v -0.5 1.1 -1.6
v -0.5 1.1 -1.7
v -0.5 1.3 -0.7
v -0.5 1.3 -0.8
v -0.5 1.5 -1.9
v -0.5 1.5 -2
v -0.5 1.6 -1.7
v -0.5 1.6 -1.9
v -0.5 1.7 -0.7
v -0.5 1.7 -0.8
v -0.5 1.8 -0.8
v -0.5 1.8 -1.2
v -0.4 0 -0.2
v -0.4 0 -0.7
v -0.4 0.1 -0.7
v -0.4 0.1 -0.8
v -0.4 0.2 -0.8
v -0.4 0.2 -0.9
v -0.4 0.5 -0.2
v -0.4 0.5 -0.3
v -0.4 0.6 -0.3
v -0.4 0.6 -0.4
v -0.4 0.9 -0.9
v -0.4 1 -0.8
v -0.4 1 -0.9
v -0.4 1.3 -0.7
v -0.4 1.3 -0.8
v -0.4 1.4 -0.4
v -0.4 1.4 -0.5
v -0.4 1.5 -0.5
v -0.4 1.5 -0.7
v -0.3 0 0
v -0.3 0 -0.2
v -0.3 0.4 0
v -0.3 0.4 -0.2
v 0.1 0 0
v 0.1 0 -0.2
v 0.1 0.4 0
v 0.1 0.4 -0.2
v 0.2 0 -0.2
v 0.2 0 -0.7
v 0.2 0.1 -0.7
v 0.2 0.1 -0.8
v 0.2 0.2 -0.8
v 0.2 0.2 -0.9
v 0.2 0.5 -0.2
v 0.2 0.5 -0.3
v 0.2 0.6 -0.3
v 0.2 0.6 -0.4
v 0.2 0.9 -0.9
v 0.2 1 -0.8
v 0.2 1 -0.9
v 0.2 1.3 -0.7
v 0.2 1.3 -0.8
v 0.2 1.4 -0.4
v 0.2 1.4 -0.5
v 0.2 1.5 -0.5
v 0.2 1.5 -0.7
v 0.3 0.8 -1.6
v 0.3 0.8 -2
v 0.3 0.9 -0.9
v 0.3 0.9 -1.2
v 0.3 0.9 -1.6
v 0.3 1 -0.8
v 0.3 1 -0.9
v 0.3 1.1 -1.6
v 0.3 1.1 -1.7
v 0.3 1.3 -0.7
v 0.3 1.3 -0.8
v 0.3 1.5 -1.9
v 0.3 1.5 -2
v 0.3 1.6 -1.7
v 0.3 1.6 -1.9
v 0.3 1.7 -0.7
v 0.3 1.7 -0.8
v 0.3 1.8 -0.8
v 0.3 1.8 -1.2
v 0.4 0.9 -1.2
v 0.4 0.9 -1.6
v 0.4 1.1 -1.6
v 0.4 1.1 -1.7
v 0.4 1.8 -1.6
v 0.4 1.8 -1.7
v 0.4 1.9 -1.2
v 0.4 1.9 -1.6
v -0.3 0 0
v -0.3 0.4 0
v 0.1 0 0
v 0.1 0.4 0
v -0.4 0 -0.2
v -0.4 0.5 -0.2
v -0.3 0 -0.2
v -0.3 0.4 -0.2
v 0.1 0 -0.2
v 0.1 0.4 -0.2
v 0.2 0 -0.2
v 0.2 0.5 -0.2
v -0.4 0.5 -0.3
v -0.4 0.6 -0.3
v 0.2 0.5 -0.3
v 0.2 0.6 -0.3
v -0.4 0.6 -0.4
v -0.4 1.4 -0.4
v 0.2 0.6 -0.4
v 0.2 1.4 -0.4
v -0.4 1.4 -0.5
v -0.4 1.5 -0.5
v 0.2 1.4 -0.5
v 0.2 1.5 -0.5
v -0.5 1.3 -0.7
v -0.5 1.7 -0.7
v -0.4 1.3 -0.7
v -0.4 1.5 -0.7
v -0.4 1.6 -0.7
v 0.2 1.3 -0.7
v 0.2 1.5 -0.7
v 0.2 1.6 -0.7
v 0.3 1.3 -0.7
v 0.3 1.7 -0.7
v -0.5 1 -0.8
v -0.5 1.3 -0.8
v -0.5 1.7 -0.8
v -0.5 1.8 -0.8
v -0.4 1 -0.8
v -0.4 1.3 -0.8
v 0.2 1 -0.8
v 0.2 1.3 -0.8
v 0.3 1 -0.8
v 0.3 1.3 -0.8
v 0.3 1.7 -0.8
v 0.3 1.8 -0.8
v -0.5 0.9 -0.9
v -0.5 1 -0.9
v -0.4 0.9 -0.9
v -0.4 1 -0.9
v 0.2 0.9 -0.9
v 0.2 1 -0.9
v 0.3 0.9 -0.9
v 0.3 1 -0.9
v -0.6 0.9 -1.2
v -0.6 1.9 -1.2
v -0.5 0.9 -1.2
v -0.5 1.8 -1.2
v 0.3 0.9 -1.2
v 0.3 1.8 -1.2
v 0.4 0.9 -1.2
v 0.4 1.9 -1.2
v -0.5 0.8 -1.6
v -0.5 0.9 -1.6
v 0.3 0.8 -1.6
v 0.3 0.9 -1.6
v -0.4 0 -0.7
v -0.4 0.1 -0.7
v 0.2 0 -0.7
v 0.2 0.1 -0.7
v -0.4 0.1 -0.8
v -0.4 0.2 -0.8
v 0.2 0.1 -0.8
v 0.2 0.2 -0.8
v -0.4 0.2 -0.9
v -0.4 0.9 -0.9
v 0.2 0.2 -0.9
v 0.2 0.9 -0.9
v -0.6 0.9 -1.6
v -0.6 1.1 -1.6
v -0.6 1.8 -1.6
v -0.6 1.9 -1.6
v -0.5 0.9 -1.6
v -0.5 1.1 -1.6
v 0.3 0.9 -1.6
v 0.3 1.1 -1.6
v 0.4 0.9 -1.6
v 0.4 1.1 -1.6
v 0.4 1.8 -1.6
v 0.4 1.9 -1.6
v -0.6 1.1 -1.7
v -0.6 1.8 -1.7
v -0.5 1.1 -1.7
v -0.5 1.6 -1.7
v 0.3 1.1 -1.7
v 0.3 1.6 -1.7
v 0.4 1.1 -1.7
v 0.4 1.8 -1.7
v -0.5 1.5 -1.9
v -0.5 1.6 -1.9
v 0.3 1.5 -1.9
v 0.3 1.6 -1.9
v -0.5 0.8 -2
v -0.5 1.5 -2
v 0.3 0.8 -2
v 0.3 1.5 -2
v -0.3 0 0
v 0.1 0 0
v -0.4 0 -0.2
v -0.3 0 -0.2
v 0.1 0 -0.2
v 0.2 0 -0.2
v -0.4 0 -0.7
v 0.2 0 -0.7
v -0.4 0.1 -0.7
v 0.2 0.1 -0.7
v -0.4 0.1 -0.8
v 0.2 0.1 -0.8
v -0.4 0.2 -0.8
v 0.2 0.2 -0.8
v -0.4 0.2 -0.9
v 0.2 0.2 -0.9
v -0.5 0.8 -1.6
v 0.3 0.8 -1.6
v -0.5 0.8 -2
v 0.3 0.8 -2
v -0.5 0.9 -0.9
v -0.4 0.9 -0.9
v 0.2 0.9 -0.9
v 0.3 0.9 -0.9
v -0.6 0.9 -1.2
v -0.5 0.9 -1.2
v 0.3 0.9 -1.2
v 0.4 0.9 -1.2
v -0.6 0.9 -1.6
v -0.5 0.9 -1.6
v 0.3 0.9 -1.6
v 0.4 0.9 -1.6
v -0.5 1 -0.8
v -0.4 1 -0.8
v 0.2 1 -0.8
v 0.3 1 -0.8
v -0.5 1 -0.9
v -0.4 1 -0.9
v 0.2 1 -0.9
v 0.3 1 -0.9
v -0.6 1.1 -1.6
v -0.5 1.1 -1.6
v 0.3 1.1 -1.6
v 0.4 1.1 -1.6
v -0.6 1.1 -1.7
v -0.5 1.1 -1.7
v 0.3 1.1 -1.7
v 0.4 1.1 -1.7
v -0.5 1.3 -0.7
v -0.4 1.3 -0.7
v 0.2 1.3 -0.7
v 0.3 1.3 -0.7
v -0.5 1.3 -0.8
v -0.4 1.3 -0.8
v 0.2 1.3 -0.8
v 0.3 1.3 -0.8
v -0.3 0.4 0
v 0.1 0.4 0
v -0.3 0.4 -0.2
v 0.1 0.4 -0.2
v -0.4 0.5 -0.2
v 0.2 0.5 -0.2
v -0.4 0.5 -0.3
v 0.2 0.5 -0.3
v -0.4 0.6 -0.3
v 0.2 0.6 -0.3
v -0.4 0.6 -0.4
v 0.2 0.6 -0.4
v -0.4 1.4 -0.4
v 0.2 1.4 -0.4
v -0.4 1.4 -0.5
v 0.2 1.4 -0.5
v -0.4 1.5 -0.5
v 0.2 1.5 -0.5
v -0.4 1.5 -0.7
v 0.2 1.5 -0.7
v -0.5 1.5 -1.9
v 0.3 1.5 -1.9
v -0.5 1.5 -2
v 0.3 1.5 -2
v -0.5 1.6 -1.7
v 0.3 1.6 -1.7
v -0.5 1.6 -1.9
v 0.3 1.6 -1.9
v -0.5 1.7 -0.7
v 0.3 1.7 -0.7
v -0.5 1.7 -0.8
v 0.3 1.7 -0.8
v -0.5 1.8 -0.8
v 0.3 1.8 -0.8
v -0.5 1.8 -1.2
v 0.3 1.8 -1.2
v -0.6 1.8 -1.6
v 0.4 1.8 -1.6
v -0.6 1.8 -1.7
v 0.4 1.8 -1.7
v -0.6 1.9 -1.2
v 0.4 1.9 -1.2
v -0.6 1.9 -1.6
v 0.4 1.9 -1.6

# faces
f 3/3/1 2/3/1 1/3/1
f 5/3/1 3/3/1 1/3/1
f 5/3/1 4/3/1 3/3/1
f 6/3/1 4/3/1 5/3/1
f 7/3/1 5/3/1 1/3/1
f 8/3/1 5/3/1 7/3/1
f 13/2/1 10/2/1 9/2/1
f 15/3/1 12/3/1 11/3/1
f 16/2/1 10/2/1 13/2/1
f 17/2/1 10/2/1 16/2/1
f 19/3/1 15/3/1 14/3/1
f 20/2/1 10/2/1 17/2/1
f 21/2/1 10/2/1 20/2/1
f 22/2/1 20/2/1 17/2/1
f 23/2/1 20/2/1 22/2/1
f 24/3/1 19/3/1 18/3/1
f 25/3/1 15/3/1 19/3/1
f 25/3/1 19/3/1 24/3/1
f 26/3/1 15/3/1 25/3/1
f 27/3/1 12/3/1 15/3/1
f 27/3/1 15/3/1 26/3/1
f 30/1/1 29/1/1 28/1/1
f 32/1/1 31/1/1 30/1/1
f 34/1/1 30/1/1 28/1/1
f 34/1/1 33/1/1 32/1/1
f 34/1/1 32/1/1 30/1/1
f 35/1/1 33/1/1 34/1/1
f 36/1/1 33/1/1 35/1/1
f 37/1/1 33/1/1 36/1/1
f 38/1/1 33/1/1 37/1/1
f 39/1/1 38/1/1 37/1/1
f 40/1/1 38/1/1 39/1/1
f 41/1/1 39/1/1 37/1/1
f 42/1/1 39/1/1 41/1/1
f 43/1/1 41/1/1 37/1/1
f 44/1/1 41/1/1 43/1/1
f 45/1/1 41/1/1 44/1/1
f 46/1/1 41/1/1 45/1/1
f 49/1/1 48/1/1 47/1/1
f 50/1/1 48/1/1 49/1/1
f 51/1/2 52/1/2 53/1/2
f 53/1/2 52/1/2 54/1/2
f 55/1/2 56/1/2 57/1/2
f 57/1/2 58/1/2 59/1/2
f 55/1/2 57/1/2 61/1/2
f 59/1/2 60/1/2 61/1/2
f 57/1/2 59/1/2 61/1/2
f 61/1/2 60/1/2 62/1/2
f 62/1/2 60/1/2 63/1/2
f 63/1/2 60/1/2 64/1/2
f 64/1/2 60/1/2 65/1/2
f 64/1/2 65/1/2 66/1/2
f 66/1/2 65/1/2 67/1/2
f 64/1/2 66/1/2 68/1/2
f 68/1/2 66/1/2 69/1/2
f 64/1/2 68/1/2 70/1/2
f 70/1/2 68/1/2 71/1/2
f 71/1/2 68/1/2 72/1/2
f 72/1/2 68/1/2 73/1/2
f 74/2/2 75/2/2 78/2/2
f 76/3/2 77/3/2 80/3/2
f 78/2/2 75/2/2 81/2/2
f 81/2/2 75/2/2 82/2/2
f 79/3/2 80/3/2 84/3/2
f 82/2/2 75/2/2 85/2/2
f 85/2/2 75/2/2 86/2/2
f 82/2/2 85/2/2 87/2/2
f 87/2/2 85/2/2 88/2/2
f 83/3/2 84/3/2 89/3/2
f 84/3/2 80/3/2 90/3/2
f 89/3/2 84/3/2 90/3/2
f 90/3/2 80/3/2 91/3/2
f 80/3/2 77/3/2 92/3/2
f 91/3/2 80/3/2 92/3/2
f 93/3/2 94/3/2 95/3/2
f 93/3/2 95/3/2 97/3/2
f 95/3/2 96/3/2 97/3/2
f 97/3/2 96/3/2 98/3/2
f 93/3/2 97/3/2 99/3/2
f 99/3/2 97/3/2 100/3/2
f 103/1/3 102/1/3 101/1/3
f 104/1/3 102/1/3 103/1/3
f 107/1/3 106/1/3 105/1/3
f 108/1/3 106/1/3 107/1/3
f 110/1/3 106/1/3 108/1/3
f 111/1/3 110/1/3 109/1/3
f 112/1/3 106/1/3 110/1/3
f 112/1/3 110/1/3 111/1/3
f 115/1/3 114/1/3 113/1/3
f 116/1/3 114/1/3 115/1/3
f 119/1/3 118/1/3 117/1/3
f 120/1/3 118/1/3 119/1/3
f 123/1/3 122/1/3 121/1/3
f 124/1/3 122/1/3 123/1/3
f 127/3/3 126/3/3 125/3/3
f 128/3/3 126/3/3 127/3/3
f 129/3/3 126/3/3 128/3/3
f 131/1/3 129/1/3 128/1/3
f 132/3/3 126/3/3 129/3/3
f 132/1/3 129/1/3 131/1/3
f 133/3/3 131/3/3 130/3/3
f 133/3/3 132/3/3 131/3/3
f 134/3/3 126/3/3 132/3/3
f 134/3/3 132/3/3 133/3/3
f 139/3/3 136/3/3 135/3/3
f 140/3/3 136/3/3 139/3/3
f 143/3/3 142/3/3 141/3/3
f 144/3/3 142/3/3 143/3/3
f 145/3/3 138/3/3 137/3/3
f 146/3/3 138/3/3 145/3/3
f 149/3/3 148/3/3 147/3/3
f 150/3/3 148/3/3 149/3/3
f 153/3/3 152/3/3 151/3/3
f 154/3/3 152/3/3 153/3/3
f 157/3/3 156/3/3 155/3/3
f 158/3/3 156/3/3 157/3/3
f 160/3/3 156/3/3 158/3/3
f 161/3/3 160/3/3 159/3/3
f 162/3/3 156/3/3 160/3/3
f 162/3/3 160/3/3 161/3/3
f 165/2/3 164/2/3 163/2/3
f 166/2/3 164/2/3 165/2/3
f 167/1/4 168/1/4 169/1/4
f 169/1/4 168/1/4 170/1/4
f 171/1/4 172/1/4 173/1/4
f 173/1/4 172/1/4 174/1/4
f 175/1/4 176/1/4 177/1/4
f 177/1/4 176/1/4 178/1/4
f 179/3/4 180/3/4 183/3/4
f 183/3/4 180/3/4 184/3/4
f 185/3/4 186/3/4 187/3/4
f 187/3/4 186/3/4 188/3/4
f 181/3/4 182/3/4 189/3/4
f 189/3/4 182/3/4 190/3/4
f 191/3/4 192/3/4 193/3/4
f 193/3/4 192/3/4 194/3/4
f 194/3/4 192/3/4 196/3/4
f 195/3/4 196/3/4 197/3/4
f 196/3/4 192/3/4 198/3/4
f 197/3/4 196/3/4 198/3/4
f 199/2/4 200/2/4 201/2/4
f 201/2/4 200/2/4 202/2/4
f 203/2/4 204/2/4 205/2/4
f 205/2/4 204/2/4 206/2/4
f 210/1/5 208/1/5 207/1/5
f 211/1/5 208/1/5 210/1/5
f 213/1/5 210/1/5 209/1/5
f 213/1/5 212/1/5 211/1/5
f 213/1/5 211/1/5 210/1/5
f 214/1/5 212/1/5 213/1/5
f 217/1/5 216/1/5 215/1/5
f 218/1/5 216/1/5 217/1/5
f 221/1/5 220/1/5 219/1/5
f 222/1/5 220/1/5 221/1/5
f 225/2/5 224/2/5 223/2/5
f 226/2/5 224/2/5 225/2/5
f 232/3/5 228/3/5 227/3/5
f 232/3/5 230/3/5 229/3/5
f 232/3/5 229/3/5 228/3/5
f 233/3/5 230/3/5 232/3/5
f 235/3/5 232/3/5 231/3/5
f 235/3/5 234/3/5 233/3/5
f 235/3/5 233/3/5 232/3/5
f 236/3/5 234/3/5 235/3/5
f 237/3/5 234/3/5 236/3/5
f 238/3/5 234/3/5 237/3/5
f 243/3/5 240/3/5 239/3/5
f 244/3/5 240/3/5 243/3/5
f 245/3/5 242/3/5 241/3/5
f 246/3/5 242/3/5 245/3/5
f 251/3/5 248/3/5 247/3/5
f 252/3/5 248/3/5 251/3/5
f 253/3/5 250/3/5 249/3/5
f 254/3/5 250/3/5 253/3/5
f 259/3/5 256/3/5 255/3/5
f 260/3/5 256/3/5 259/3/5
f 261/3/5 258/3/5 257/3/5
f 262/3/5 258/3/5 261/3/5
f 263/1/6 264/1/6 265/1/6
f 265/1/6 264/1/6 266/1/6
f 267/1/6 268/1/6 269/1/6
f 269/1/6 268/1/6 270/1/6
f 271/1/6 272/1/6 273/1/6
f 273/1/6 272/1/6 274/1/6
f 275/1/6 276/1/6 277/1/6
f 277/1/6 276/1/6 278/1/6
f 279/1/6 280/1/6 281/1/6
f 281/1/6 280/1/6 282/1/6
f 283/2/6 284/2/6 285/2/6
f 285/2/6 284/2/6 286/2/6
f 287/2/6 288/2/6 289/2/6
f 289/2/6 288/2/6 290/2/6
f 291/3/6 292/3/6 293/3/6
f 293/3/6 292/3/6 294/3/6
f 295/3/6 296/3/6 297/3/6
f 297/3/6 296/3/6 298/3/6
f 299/3/6 300/3/6 301/3/6
f 301/3/6 300/3/6 302/3/6
f 303/3/6 304/3/6 305/3/6
f 305/3/6 304/3/6 306/3/6
