# MagicaVoxel @ Ephtracy

# group
o 

# material
mtllib ardilla_oscura-1.mtl
usemtl palette

# normals
vn -1 0 0
vn 1 0 0
vn 0 0 1
vn 0 0 -1
vn 0 -1 0
vn 0 1 0

# texcoords
vt 0.0292969 0.5
vt 0.0878906 0.5
vt 0.251953 0.5
vt 0.677734 0.5
vt 0.994141 0.5

# verts
v -1.1 2 1.5
v -1.1 2 1.4
v -1.1 2 0
v -1.1 2.4 1.5
v -1.1 2.4 1.4
v -1.1 2.4 0
v -1 1.9 1.5
v -1 1.9 1.4
v -1 1.9 0
v -1 2 1.5
v -1 2 1.4
v -1 2 0
v -1 2 -0.1
v -1 2.4 1.5
v -1 2.4 1.4
v -1 2.4 0
v -1 2.5 1.5
v -1 2.5 1.4
v -1 2.5 -0.1
v -0.9 1.9 0
v -0.9 1.9 -0.1
v -0.9 2 0
v -0.9 2 -0.1
v -0.9 2.5 1.4
v -0.9 2.5 -0.1
v -0.9 3.1 1.4
v -0.9 3.1 -0.1
v -0.8 1.9 -0.1
v -0.8 1.9 -0.2
v -0.8 2.9 -0.1
v -0.8 2.9 -0.2
v -0.8 3.1 1.3
v -0.8 3.1 0
v -0.8 3.2 1.3
v -0.8 3.2 0.8
v -0.8 3.2 0.5
v -0.8 3.2 0
v -0.8 3.6 0.8
v -0.8 3.6 0.5
v -0.7 2.9 -0.1
v -0.7 2.9 -0.2
v -0.7 3 -0.1
v -0.7 3 -0.2
v -0.4 2.2 1.6
v -0.4 2.2 1.4
v -0.4 2.3 1.6
v -0.4 2.3 1.4
v -0.4 2.6 1.6
v -0.4 2.6 1.4
v -0.4 3.2 0.8
v -0.4 3.2 0.7
v -0.4 3.5 0.8
v -0.4 3.5 0.7
v 0.1 3.2 0.8
v 0.1 3.2 0.5
v 0.1 3.6 0.8
v 0.1 3.6 0.5
v 0.4 2 1.5
v 0.4 2 1.4
v 0.4 2.4 1.5
v 0.4 2.4 1.4
v 0.5 1.9 1.5
v 0.5 1.9 1.4
v 0.5 2 1.5
v 0.5 2 1.4
v 0.5 2.4 1.5
v 0.5 2.4 1.4
v 0.5 2.5 1.5
v 0.5 2.5 1.4
v 0.5 3.2 0.8
v 0.5 3.2 0.7
v 0.5 3.5 0.8
v 0.5 3.5 0.7
v -0.7 1.9 1.5
v -0.7 1.9 1.4
v -0.7 2 1.5
v -0.7 2 1.4
v -0.7 2.4 1.5
v -0.7 2.4 1.4
v -0.7 2.5 1.5
v -0.7 2.5 1.4
v -0.7 3.2 0.8
v -0.7 3.2 0.7
v -0.7 3.5 0.8
v -0.7 3.5 0.7
v -0.6 2 1.5
v -0.6 2 1.4
v -0.6 2.4 1.5
v -0.6 2.4 1.4
v -0.3 3.2 0.8
v -0.3 3.2 0.5
v -0.3 3.6 0.8
v -0.3 3.6 0.5
v 0.2 2.2 1.6
v 0.2 2.2 1.4
v 0.2 2.3 1.6
v 0.2 2.3 1.4
v 0.2 2.6 1.6
v 0.2 2.6 1.4
v 0.2 3.2 0.8
v 0.2 3.2 0.7
v 0.2 3.5 0.8
v 0.2 3.5 0.7
v 0.5 2.9 -0.1
v 0.5 2.9 -0.2
v 0.5 3 -0.1
v 0.5 3 -0.2
v 0.6 1.9 -0.1
v 0.6 1.9 -0.2
v 0.6 2.9 -0.1
v 0.6 2.9 -0.2
v 0.6 3.1 1.3
v 0.6 3.1 0
v 0.6 3.2 1.3
v 0.6 3.2 0.8
v 0.6 3.2 0.5
v 0.6 3.2 0
v 0.6 3.6 0.8
v 0.6 3.6 0.5
v 0.7 2.5 1.4
v 0.7 2.5 -0.1
v 0.7 3.1 1.4
v 0.7 3.1 -0.1
v 0.8 1.9 1.5
v 0.8 1.9 1.4
v 0.8 1.9 -0.1
v 0.8 2 1.5
v 0.8 2 1.4
v 0.8 2 0
v 0.8 2.4 1.5
v 0.8 2.4 1.4
v 0.8 2.4 0
v 0.8 2.5 1.5
v 0.8 2.5 1.4
v 0.8 2.5 -0.1
v 0.9 2 1.5
v 0.9 2 1.4
v 0.9 2 0
v 0.9 2.4 1.5
v 0.9 2.4 1.4
v 0.9 2.4 0
v -0.4 2.2 1.6
v -0.4 2.3 1.6
v -0.4 2.6 1.6
v -0.2 2.3 1.6
v -0.2 2.5 1.6
v -0.2 2.6 1.6
v 0 2.3 1.6
v 0 2.5 1.6
v 0 2.6 1.6
v 0.2 2.2 1.6
v 0.2 2.3 1.6
v 0.2 2.6 1.6
v -1.1 2 1.5
v -1.1 2.4 1.5
v -1 1.9 1.5
v -1 2 1.5
v -1 2.4 1.5
v -1 2.5 1.5
v -0.7 1.9 1.5
v -0.7 2 1.5
v -0.7 2.4 1.5
v -0.7 2.5 1.5
v -0.6 2 1.5
v -0.6 2.4 1.5
v 0.4 2 1.5
v 0.4 2.4 1.5
v 0.5 1.9 1.5
v 0.5 2 1.5
v 0.5 2.4 1.5
v 0.5 2.5 1.5
v 0.8 1.9 1.5
v 0.8 2 1.5
v 0.8 2.4 1.5
v 0.8 2.5 1.5
v 0.9 2 1.5
v 0.9 2.4 1.5
v -0.9 2.5 1.4
v -0.9 3.1 1.4
v -0.7 1.9 1.4
v -0.7 2 1.4
v -0.7 2.4 1.4
v -0.7 2.5 1.4
v -0.6 2 1.4
v -0.6 2.4 1.4
v -0.5 2.6 1.4
v -0.5 2.7 1.4
v -0.5 2.9 1.4
v -0.4 1.9 1.4
v -0.4 2.2 1.4
v -0.4 2.3 1.4
v -0.4 2.6 1.4
v -0.4 2.7 1.4
v -0.4 2.9 1.4
v -0.2 2.6 1.4
v 0 2.6 1.4
v 0.2 1.9 1.4
v 0.2 2.2 1.4
v 0.2 2.3 1.4
v 0.2 2.6 1.4
v 0.2 2.7 1.4
v 0.2 2.9 1.4
v 0.3 2.6 1.4
v 0.3 2.7 1.4
v 0.3 2.9 1.4
v 0.4 2 1.4
v 0.4 2.4 1.4
v 0.5 1.9 1.4
v 0.5 2 1.4
v 0.5 2.4 1.4
v 0.5 2.5 1.4
v 0.7 2.5 1.4
v 0.7 3.1 1.4
v -0.8 3.1 1.3
v -0.8 3.2 1.3
v 0.6 3.1 1.3
v 0.6 3.2 1.3
v -0.8 3.2 0.8
v -0.8 3.6 0.8
v -0.7 3.2 0.8
v -0.7 3.5 0.8
v -0.4 3.2 0.8
v -0.4 3.5 0.8
v -0.3 3.2 0.8
v -0.3 3.6 0.8
v 0.1 3.2 0.8
v 0.1 3.6 0.8
v 0.2 3.2 0.8
v 0.2 3.5 0.8
v 0.5 3.2 0.8
v 0.5 3.5 0.8
v 0.6 3.2 0.8
v 0.6 3.6 0.8
v -0.7 3.2 0.7
v -0.7 3.5 0.7
v -0.4 3.2 0.7
v -0.4 3.5 0.7
v 0.2 3.2 0.7
v 0.2 3.5 0.7
v 0.5 3.2 0.7
v 0.5 3.5 0.7
v -0.8 3.2 0.5
v -0.8 3.6 0.5
v -0.3 3.2 0.5
v -0.3 3.6 0.5
v 0.1 3.2 0.5
v 0.1 3.6 0.5
v 0.6 3.2 0.5
v 0.6 3.6 0.5
v -1.1 2 0
v -1.1 2.4 0
v -1 1.9 0
v -1 2 0
v -1 2.4 0
v -0.9 1.9 0
v -0.9 2 0
v -0.8 3.1 0
v -0.8 3.2 0
v 0.6 3.1 0
v 0.6 3.2 0
v 0.8 2 0
v 0.8 2.4 0
v 0.9 2 0
v 0.9 2.4 0
v -1 2 -0.1
v -1 2.5 -0.1
v -0.9 1.9 -0.1
v -0.9 2 -0.1
v -0.9 2.5 -0.1
v -0.9 3.1 -0.1
v -0.8 1.9 -0.1
v -0.8 2.9 -0.1
v -0.7 2.9 -0.1
v -0.7 3 -0.1
v 0.5 2.9 -0.1
v 0.5 3 -0.1
v 0.6 1.9 -0.1
v 0.6 2.9 -0.1
v 0.7 2.5 -0.1
v 0.7 3.1 -0.1
v 0.8 1.9 -0.1
v 0.8 2.5 -0.1
v -0.8 1.9 -0.2
v -0.8 2.9 -0.2
v -0.7 2.9 -0.2
v -0.7 3 -0.2
v 0.5 2.9 -0.2
v 0.5 3 -0.2
v 0.6 1.9 -0.2
v 0.6 2.9 -0.2
v -1 1.9 1.5
v -0.7 1.9 1.5
v 0.5 1.9 1.5
v 0.8 1.9 1.5
v -1 1.9 1.4
v -0.7 1.9 1.4
v -0.4 1.9 1.4
v 0.2 1.9 1.4
v 0.5 1.9 1.4
v 0.8 1.9 1.4
v -0.4 1.9 1.2
v 0.2 1.9 1.2
v -1 1.9 0
v -0.9 1.9 0
v -0.9 1.9 -0.1
v -0.8 1.9 -0.1
v 0.6 1.9 -0.1
v 0.8 1.9 -0.1
v -0.8 1.9 -0.2
v 0.6 1.9 -0.2
v -1.1 2 1.5
v -1 2 1.5
v -0.7 2 1.5
v -0.6 2 1.5
v 0.4 2 1.5
v 0.5 2 1.5
v 0.8 2 1.5
v 0.9 2 1.5
v -1.1 2 1.4
v -1 2 1.4
v -0.7 2 1.4
v -0.6 2 1.4
v 0.4 2 1.4
v 0.5 2 1.4
v 0.8 2 1.4
v 0.9 2 1.4
v -1.1 2 0
v -1 2 0
v -0.9 2 0
v 0.8 2 0
v 0.9 2 0
v -1 2 -0.1
v -0.9 2 -0.1
v -0.4 2.2 1.6
v 0.2 2.2 1.6
v -0.4 2.2 1.4
v 0.2 2.2 1.4
v -0.7 3.5 0.8
v -0.4 3.5 0.8
v 0.2 3.5 0.8
v 0.5 3.5 0.8
v -0.7 3.5 0.7
v -0.4 3.5 0.7
v 0.2 3.5 0.7
v 0.5 3.5 0.7
v -1.1 2.4 1.5
v -1 2.4 1.5
v -0.7 2.4 1.5
v -0.6 2.4 1.5
v 0.4 2.4 1.5
v 0.5 2.4 1.5
v 0.8 2.4 1.5
v 0.9 2.4 1.5
v -1.1 2.4 1.4
v -1 2.4 1.4
v -0.7 2.4 1.4
v -0.6 2.4 1.4
v 0.4 2.4 1.4
v 0.5 2.4 1.4
v 0.8 2.4 1.4
v 0.9 2.4 1.4
v -1.1 2.4 0
v -1 2.4 0
v 0.8 2.4 0
v 0.9 2.4 0
v -1 2.5 1.5
v -0.7 2.5 1.5
v 0.5 2.5 1.5
v 0.8 2.5 1.5
v -1 2.5 1.4
v -0.9 2.5 1.4
v -0.7 2.5 1.4
v 0.5 2.5 1.4
v 0.7 2.5 1.4
v 0.8 2.5 1.4
v -1 2.5 -0.1
v -0.9 2.5 -0.1
v 0.7 2.5 -0.1
v 0.8 2.5 -0.1
v -0.4 2.6 1.6
v -0.2 2.6 1.6
v 0 2.6 1.6
v 0.2 2.6 1.6
v -0.4 2.6 1.4
v -0.2 2.6 1.4
v 0 2.6 1.4
v 0.2 2.6 1.4
v -0.8 2.9 -0.1
v -0.7 2.9 -0.1
v 0.5 2.9 -0.1
v 0.6 2.9 -0.1
v -0.8 2.9 -0.2
v -0.7 2.9 -0.2
v 0.5 2.9 -0.2
v 0.6 2.9 -0.2
v -0.7 3 -0.1
v 0.5 3 -0.1
v -0.7 3 -0.2
v 0.5 3 -0.2
v -0.9 3.1 1.4
v 0.7 3.1 1.4
v -0.8 3.1 1.3
v 0.6 3.1 1.3
v -0.8 3.1 0
v 0.6 3.1 0
v -0.9 3.1 -0.1
v 0.7 3.1 -0.1
v -0.8 3.2 1.3
v 0.6 3.2 1.3
v -0.8 3.2 0.8
v -0.7 3.2 0.8
v -0.4 3.2 0.8
v -0.3 3.2 0.8
v 0.1 3.2 0.8
v 0.2 3.2 0.8
v 0.5 3.2 0.8
v 0.6 3.2 0.8
v -0.7 3.2 0.7
v -0.4 3.2 0.7
v 0.2 3.2 0.7
v 0.5 3.2 0.7
v -0.8 3.2 0.5
v -0.3 3.2 0.5
v 0.1 3.2 0.5
v 0.6 3.2 0.5
v -0.8 3.2 0
v 0.6 3.2 0
v -0.8 3.6 0.8
v -0.3 3.6 0.8
v 0.1 3.6 0.8
v 0.6 3.6 0.8
v -0.8 3.6 0.5
v -0.3 3.6 0.5
v 0.1 3.6 0.5
v 0.6 3.6 0.5

# faces
f 4/1/1 2/1/1 1/1/1
f 5/2/1 3/2/1 2/2/1
f 5/1/1 2/1/1 4/1/1
f 6/2/1 3/2/1 5/2/1
f 10/1/1 8/1/1 7/1/1
f 11/2/1 9/2/1 8/2/1
f 11/1/1 8/1/1 10/1/1
f 12/2/1 9/2/1 11/2/1
f 16/2/1 13/2/1 12/2/1
f 17/1/1 15/1/1 14/1/1
f 18/2/1 16/2/1 15/2/1
f 18/1/1 15/1/1 17/1/1
f 19/2/1 13/2/1 16/2/1
f 19/2/1 16/2/1 18/2/1
f 22/2/1 21/2/1 20/2/1
f 23/2/1 21/2/1 22/2/1
f 26/2/1 25/2/1 24/2/1
f 27/2/1 25/2/1 26/2/1
f 30/2/1 29/2/1 28/2/1
f 31/2/1 29/2/1 30/2/1
f 34/2/1 33/2/1 32/2/1
f 35/2/1 33/2/1 34/2/1
f 36/2/1 33/2/1 35/2/1
f 37/2/1 33/2/1 36/2/1
f 38/2/1 36/2/1 35/2/1
f 39/2/1 36/2/1 38/2/1
f 42/2/1 41/2/1 40/2/1
f 43/2/1 41/2/1 42/2/1
f 46/5/1 45/5/1 44/5/1
f 47/5/1 45/5/1 46/5/1
f 48/1/1 47/1/1 46/1/1
f 49/1/1 47/1/1 48/1/1
f 52/2/1 51/2/1 50/2/1
f 53/2/1 51/2/1 52/2/1
f 56/2/1 55/2/1 54/2/1
f 57/2/1 55/2/1 56/2/1
f 60/1/1 59/1/1 58/1/1
f 61/1/1 59/1/1 60/1/1
f 64/1/1 63/1/1 62/1/1
f 65/1/1 63/1/1 64/1/1
f 68/1/1 67/1/1 66/1/1
f 69/1/1 67/1/1 68/1/1
f 72/2/1 71/2/1 70/2/1
f 73/2/1 71/2/1 72/2/1
f 74/1/2 75/1/2 76/1/2
f 76/1/2 75/1/2 77/1/2
f 78/1/2 79/1/2 80/1/2
f 80/1/2 79/1/2 81/1/2
f 82/2/2 83/2/2 84/2/2
f 84/2/2 83/2/2 85/2/2
f 86/1/2 87/1/2 88/1/2
f 88/1/2 87/1/2 89/1/2
f 90/2/2 91/2/2 92/2/2
f 92/2/2 91/2/2 93/2/2
f 94/5/2 95/5/2 96/5/2
f 96/5/2 95/5/2 97/5/2
f 96/1/2 97/1/2 98/1/2
f 98/1/2 97/1/2 99/1/2
f 100/2/2 101/2/2 102/2/2
f 102/2/2 101/2/2 103/2/2
f 104/2/2 105/2/2 106/2/2
f 106/2/2 105/2/2 107/2/2
f 108/2/2 109/2/2 110/2/2
f 110/2/2 109/2/2 111/2/2
f 112/2/2 113/2/2 114/2/2
f 114/2/2 113/2/2 115/2/2
f 115/2/2 113/2/2 116/2/2
f 116/2/2 113/2/2 117/2/2
f 115/2/2 116/2/2 118/2/2
f 118/2/2 116/2/2 119/2/2
f 120/2/2 121/2/2 122/2/2
f 122/2/2 121/2/2 123/2/2
f 124/1/2 125/1/2 127/1/2
f 125/2/2 126/2/2 128/2/2
f 127/1/2 125/1/2 128/1/2
f 128/2/2 126/2/2 129/2/2
f 129/2/2 126/2/2 132/2/2
f 130/1/2 131/1/2 133/1/2
f 131/2/2 132/2/2 134/2/2
f 133/1/2 131/1/2 134/1/2
f 132/2/2 126/2/2 135/2/2
f 134/2/2 132/2/2 135/2/2
f 136/1/2 137/1/2 139/1/2
f 137/2/2 138/2/2 140/2/2
f 139/1/2 137/1/2 140/1/2
f 140/2/2 138/2/2 141/2/2
f 145/5/3 143/5/3 142/5/3
f 145/1/3 144/1/3 143/1/3
f 146/1/3 144/1/3 145/1/3
f 147/1/3 144/1/3 146/1/3
f 148/5/3 145/5/3 142/5/3
f 148/5/3 146/5/3 145/5/3
f 149/3/3 147/3/3 146/3/3
f 149/5/3 146/5/3 148/5/3
f 150/3/3 147/3/3 149/3/3
f 151/5/3 148/5/3 142/5/3
f 152/1/3 149/1/3 148/1/3
f 152/5/3 148/5/3 151/5/3
f 152/1/3 150/1/3 149/1/3
f 153/1/3 150/1/3 152/1/3
f 157/1/3 155/1/3 154/1/3
f 158/1/3 155/1/3 157/1/3
f 160/1/3 157/1/3 156/1/3
f 160/1/3 159/1/3 158/1/3
f 160/1/3 158/1/3 157/1/3
f 161/1/3 159/1/3 160/1/3
f 162/1/3 159/1/3 161/1/3
f 163/1/3 159/1/3 162/1/3
f 164/1/3 162/1/3 161/1/3
f 165/1/3 162/1/3 164/1/3
f 169/1/3 167/1/3 166/1/3
f 170/1/3 167/1/3 169/1/3
f 172/1/3 170/1/3 169/1/3
f 172/1/3 171/1/3 170/1/3
f 172/1/3 169/1/3 168/1/3
f 173/1/3 171/1/3 172/1/3
f 174/1/3 171/1/3 173/1/3
f 175/1/3 171/1/3 174/1/3
f 176/1/3 174/1/3 173/1/3
f 177/1/3 174/1/3 176/1/3
f 183/2/3 179/2/3 178/2/3
f 184/2/3 181/2/3 180/2/3
f 185/2/3 183/2/3 182/2/3
f 186/2/3 179/2/3 183/2/3
f 186/2/3 185/2/3 184/2/3
f 186/2/3 183/2/3 185/2/3
f 187/2/3 179/2/3 186/2/3
f 188/2/3 179/2/3 187/2/3
f 189/2/3 184/2/3 180/2/3
f 189/2/3 186/2/3 184/2/3
f 190/2/3 186/2/3 189/2/3
f 191/2/3 186/2/3 190/2/3
f 192/4/3 187/4/3 186/4/3
f 192/2/3 186/2/3 191/2/3
f 193/5/3 188/5/3 187/5/3
f 193/4/3 187/4/3 192/4/3
f 194/2/3 179/2/3 188/2/3
f 194/5/3 188/5/3 193/5/3
f 195/2/3 193/2/3 192/2/3
f 195/2/3 194/2/3 193/2/3
f 196/2/3 194/2/3 195/2/3
f 197/1/3 190/1/3 189/1/3
f 198/1/3 190/1/3 197/1/3
f 200/2/3 194/2/3 196/2/3
f 201/2/3 194/2/3 200/2/3
f 202/2/3 179/2/3 194/2/3
f 202/2/3 194/2/3 201/2/3
f 203/4/3 201/4/3 200/4/3
f 203/2/3 199/2/3 198/2/3
f 203/2/3 198/2/3 197/2/3
f 203/2/3 200/2/3 199/2/3
f 204/5/3 202/5/3 201/5/3
f 204/4/3 201/4/3 203/4/3
f 205/2/3 179/2/3 202/2/3
f 205/5/3 202/5/3 204/5/3
f 206/2/3 204/2/3 203/2/3
f 206/2/3 203/2/3 197/2/3
f 206/2/3 205/2/3 204/2/3
f 207/2/3 205/2/3 206/2/3
f 208/2/3 206/2/3 197/2/3
f 209/2/3 206/2/3 208/2/3
f 210/2/3 205/2/3 207/2/3
f 211/2/3 205/2/3 210/2/3
f 212/2/3 205/2/3 211/2/3
f 213/2/3 179/2/3 205/2/3
f 213/2/3 205/2/3 212/2/3
f 216/2/3 215/2/3 214/2/3
f 217/2/3 215/2/3 216/2/3
f 220/2/3 219/2/3 218/2/3
f 221/2/3 219/2/3 220/2/3
f 223/2/3 219/2/3 221/2/3
f 224/2/3 223/2/3 222/2/3
f 225/2/3 219/2/3 223/2/3
f 225/2/3 223/2/3 224/2/3
f 228/2/3 227/2/3 226/2/3
f 229/2/3 227/2/3 228/2/3
f 231/2/3 227/2/3 229/2/3
f 232/2/3 231/2/3 230/2/3
f 233/2/3 227/2/3 231/2/3
f 233/2/3 231/2/3 232/2/3
f 236/3/3 235/3/3 234/3/3
f 237/3/3 235/3/3 236/3/3
f 240/3/3 239/3/3 238/3/3
f 241/3/3 239/3/3 240/3/3
f 242/2/4 243/2/4 244/2/4
f 244/2/4 243/2/4 245/2/4
f 246/2/4 247/2/4 248/2/4
f 248/2/4 247/2/4 249/2/4
f 250/2/4 251/2/4 253/2/4
f 253/2/4 251/2/4 254/2/4
f 252/2/4 253/2/4 255/2/4
f 255/2/4 253/2/4 256/2/4
f 257/2/4 258/2/4 259/2/4
f 259/2/4 258/2/4 260/2/4
f 261/2/4 262/2/4 263/2/4
f 263/2/4 262/2/4 264/2/4
f 265/2/4 266/2/4 268/2/4
f 268/2/4 266/2/4 269/2/4
f 267/2/4 268/2/4 271/2/4
f 269/2/4 270/2/4 271/2/4
f 268/2/4 269/2/4 271/2/4
f 271/2/4 270/2/4 272/2/4
f 272/2/4 270/2/4 273/2/4
f 273/2/4 270/2/4 274/2/4
f 274/2/4 270/2/4 276/2/4
f 275/2/4 276/2/4 278/2/4
f 277/2/4 278/2/4 279/2/4
f 276/2/4 270/2/4 280/2/4
f 279/2/4 278/2/4 280/2/4
f 278/2/4 276/2/4 280/2/4
f 277/2/4 279/2/4 281/2/4
f 281/2/4 279/2/4 282/2/4
f 283/2/4 284/2/4 285/2/4
f 283/2/4 285/2/4 287/2/4
f 285/2/4 286/2/4 287/2/4
f 287/2/4 286/2/4 288/2/4
f 283/2/4 287/2/4 289/2/4
f 289/2/4 287/2/4 290/2/4
f 295/1/5 292/1/5 291/1/5
f 296/1/5 292/1/5 295/1/5
f 299/1/5 294/1/5 293/1/5
f 300/1/5 294/1/5 299/1/5
f 301/1/5 298/1/5 297/1/5
f 301/2/5 296/2/5 295/2/5
f 301/2/5 297/2/5 296/2/5
f 302/2/5 300/2/5 299/2/5
f 302/1/5 298/1/5 301/1/5
f 302/2/5 299/2/5 298/2/5
f 303/2/5 301/2/5 295/2/5
f 303/2/5 302/2/5 301/2/5
f 304/2/5 302/2/5 303/2/5
f 305/2/5 302/2/5 304/2/5
f 306/2/5 302/2/5 305/2/5
f 307/2/5 300/2/5 302/2/5
f 307/2/5 302/2/5 306/2/5
f 308/2/5 300/2/5 307/2/5
f 309/2/5 307/2/5 306/2/5
f 310/2/5 307/2/5 309/2/5
f 319/1/5 312/1/5 311/1/5
f 320/1/5 312/1/5 319/1/5
f 321/1/5 314/1/5 313/1/5
f 322/1/5 314/1/5 321/1/5
f 323/1/5 316/1/5 315/1/5
f 324/1/5 316/1/5 323/1/5
f 325/1/5 318/1/5 317/1/5
f 326/1/5 318/1/5 325/1/5
f 327/2/5 320/2/5 319/2/5
f 328/2/5 320/2/5 327/2/5
f 330/2/5 326/2/5 325/2/5
f 331/2/5 326/2/5 330/2/5
f 332/2/5 329/2/5 328/2/5
f 333/2/5 329/2/5 332/2/5
f 336/5/5 335/5/5 334/5/5
f 337/5/5 335/5/5 336/5/5
f 342/2/5 339/2/5 338/2/5
f 343/2/5 339/2/5 342/2/5
f 344/2/5 341/2/5 340/2/5
f 345/2/5 341/2/5 344/2/5
f 346/1/6 347/1/6 354/1/6
f 354/1/6 347/1/6 355/1/6
f 348/1/6 349/1/6 356/1/6
f 356/1/6 349/1/6 357/1/6
f 350/1/6 351/1/6 358/1/6
f 358/1/6 351/1/6 359/1/6
f 352/1/6 353/1/6 360/1/6
f 360/1/6 353/1/6 361/1/6
f 354/2/6 355/2/6 362/2/6
f 362/2/6 355/2/6 363/2/6
f 360/2/6 361/2/6 364/2/6
f 364/2/6 361/2/6 365/2/6
f 366/1/6 367/1/6 370/1/6
f 370/1/6 367/1/6 371/1/6
f 371/1/6 367/1/6 372/1/6
f 368/1/6 369/1/6 373/1/6
f 373/1/6 369/1/6 374/1/6
f 374/1/6 369/1/6 375/1/6
f 370/2/6 371/2/6 376/2/6
f 376/2/6 371/2/6 377/2/6
f 374/2/6 375/2/6 378/2/6
f 378/2/6 375/2/6 379/2/6
f 380/1/6 381/1/6 384/1/6
f 381/3/6 382/3/6 385/3/6
f 384/1/6 381/1/6 385/1/6
f 382/1/6 383/1/6 386/1/6
f 385/3/6 382/3/6 386/3/6
f 386/1/6 383/1/6 387/1/6
f 388/2/6 389/2/6 392/2/6
f 392/2/6 389/2/6 393/2/6
f 390/2/6 391/2/6 394/2/6
f 394/2/6 391/2/6 395/2/6
f 396/2/6 397/2/6 398/2/6
f 398/2/6 397/2/6 399/2/6
f 400/2/6 401/2/6 402/2/6
f 402/2/6 401/2/6 403/2/6
f 400/2/6 402/2/6 404/2/6
f 403/2/6 401/2/6 405/2/6
f 400/2/6 404/2/6 406/2/6
f 404/2/6 405/2/6 406/2/6
f 405/2/6 401/2/6 407/2/6
f 406/2/6 405/2/6 407/2/6
f 408/2/6 409/2/6 410/2/6
f 410/2/6 409/2/6 411/2/6
f 411/2/6 409/2/6 412/2/6
f 412/2/6 409/2/6 413/2/6
f 413/2/6 409/2/6 414/2/6
f 414/2/6 409/2/6 415/2/6
f 415/2/6 409/2/6 416/2/6
f 416/2/6 409/2/6 417/2/6
f 411/2/6 412/2/6 418/2/6
f 418/2/6 412/2/6 419/2/6
f 415/2/6 416/2/6 420/2/6
f 420/2/6 416/2/6 421/2/6
f 413/2/6 414/2/6 423/2/6
f 423/2/6 414/2/6 424/2/6
f 423/2/6 424/2/6 426/2/6
f 424/2/6 425/2/6 426/2/6
f 422/2/6 423/2/6 426/2/6
f 426/2/6 425/2/6 427/2/6
f 428/2/6 429/2/6 432/2/6
f 432/2/6 429/2/6 433/2/6
f 430/2/6 431/2/6 434/2/6
f 434/2/6 431/2/6 435/2/6
