# MagicaVoxel @ Ephtracy

# group
o 

# material
mtllib pino-1.mtl
usemtl palette

# normals
vn -1 0 0
vn 1 0 0
vn 0 0 1
vn 0 0 -1
vn 0 -1 0
vn 0 1 0

# texcoords
vt 0.970703 0.5
vt 0.974609 0.5
vt 0.990234 0.5
vt 0.994141 0.5

# verts
v -1.5 1 1.6
v -1.5 1 -1.5
v -1.5 1.1 1.6
v -1.5 1.1 -1.5
v -1.5 1.4 1.6
v -1.5 1.4 -1.5
v -1.4 1.4 1.3
v -1.4 1.4 -0.2
v -1.4 1.4 -1
v -1.4 1.4 -1.4
v -1.4 1.5 1.3
v -1.4 1.5 -0.2
v -1.4 1.5 -1
v -1.4 1.5 -1.4
v -1.2 1.8 1.3
v -1.2 1.8 -1.2
v -1.2 1.9 1.3
v -1.2 1.9 -1.2
v -1.2 2.2 1.3
v -1.2 2.2 -1.2
v -1.1 2.7 1.2
v -1.1 2.7 -1.1
v -1.1 2.8 1.2
v -1.1 2.8 -1.1
v -1.1 3.1 1.2
v -1.1 3.1 -1.1
v -0.9 3.5 1
v -0.9 3.5 -0.9
v -0.9 3.6 1
v -0.9 3.6 -0.9
v -0.9 3.9 1
v -0.9 3.9 -0.9
v -0.8 3.9 0.8
v -0.8 3.9 -0.4
v -0.8 4 0.8
v -0.8 4 -0.4
v -0.7 4.4 0.8
v -0.7 4.4 -0.7
v -0.7 4.5 0.8
v -0.7 4.5 -0.7
v -0.7 4.8 0.8
v -0.7 4.8 -0.7
v -0.6 3.1 0.3
v -0.6 3.1 0.2
v -0.6 3.1 -0.7
v -0.6 3.1 -1.1
v -0.6 3.2 0.3
v -0.6 3.2 0.2
v -0.6 3.2 -0.7
v -0.6 3.2 -1.1
v -0.5 5.2 0.6
v -0.5 5.2 -0.5
v -0.5 5.3 0.6
v -0.5 5.3 -0.5
v -0.5 5.6 0.6
v -0.5 5.6 -0.5
v -0.4 1.4 1.5
v -0.4 1.4 1.4
v -0.4 1.5 1.5
v -0.4 1.5 1.4
v -0.4 3.1 1
v -0.4 3.1 0.9
v -0.4 3.2 1
v -0.4 3.2 0.9
v -0.4 5.6 0.3
v -0.4 5.6 -0.3
v -0.4 5.7 0.3
v -0.4 5.7 -0.3
v -0.3 3.9 -0.7
v -0.3 3.9 -0.9
v -0.3 4 -0.7
v -0.3 4 -0.9
v -0.2 0 0.2
v -0.2 0 -0.1
v -0.2 1 0.2
v -0.2 1 -0.1
v -0.2 1.4 0.2
v -0.2 1.4 -0.1
v -0.2 1.8 0.2
v -0.2 1.8 -0.1
v -0.2 2.2 1
v -0.2 2.2 0.5
v -0.2 2.2 0.2
v -0.2 2.2 -0.1
v -0.2 2.3 1
v -0.2 2.3 0.5
v -0.2 2.7 0.2
v -0.2 2.7 -0.1
v -0.2 3.1 0.2
v -0.2 3.1 -0.1
v -0.2 3.5 0.2
v -0.2 3.5 -0.1
v -0.2 3.9 0.2
v -0.2 3.9 -0.1
v -0.2 4.4 0.2
v -0.2 4.4 -0.1
v -0.2 4.8 0.2
v -0.2 4.8 -0.1
v -0.2 5.2 0.2
v -0.2 5.2 -0.1
v 1.19209e-007 4.8 0.6
v 1.19209e-007 4.8 0.5
v 1.19209e-007 4.9 0.6
v 1.19209e-007 4.9 0.5
v 0.2 3.9 0.8
v 0.2 3.9 0.7
v 0.2 4 0.8
v 0.2 4 0.7
v 0.8 1.4 1.4
v 0.8 1.4 1.3
v 0.8 1.5 1.4
v 0.8 1.5 1.3
v 0.9 1.4 0.4
v 0.9 1.4 -1.2
v 0.9 1.5 0.4
v 0.9 1.5 -1.2
v -1.1 1.4 1.3
v -1.1 1.4 -0.2
v -1.1 1.5 1.3
v -1.1 1.5 -0.2
v -0.5 3.1 0.3
v -0.5 3.1 0.2
v -0.5 3.2 0.3
v -0.5 3.2 0.2
v -0.5 3.9 0.8
v -0.5 3.9 -0.4
v -0.5 4 0.8
v -0.5 4 -0.4
v -0.3 3.1 1
v -0.3 3.1 0.9
v -0.3 3.2 1
v -0.3 3.2 0.9
v 0.1 0 0.2
v 0.1 0 -0.1
v 0.1 1 0.2
v 0.1 1 -0.1
v 0.1 1.4 1.5
v 0.1 1.4 1.4
v 0.1 1.4 0.2
v 0.1 1.4 -0.1
v 0.1 1.5 1.5
v 0.1 1.5 1.4
v 0.1 1.8 0.2
v 0.1 1.8 -0.1
v 0.1 2.2 0.2
v 0.1 2.2 -0.1
v 0.1 2.7 0.2
v 0.1 2.7 -0.1
v 0.1 3.1 0.2
v 0.1 3.1 -0.1
v 0.1 3.5 0.2
v 0.1 3.5 -0.1
v 0.1 3.9 0.2
v 0.1 3.9 -0.1
v 0.1 4.4 0.2
v 0.1 4.4 -0.1
v 0.1 4.8 0.2
v 0.1 4.8 -0.1
v 0.1 5.2 0.2
v 0.1 5.2 -0.1
v 0.3 3.9 0.8
v 0.3 3.9 0.7
v 0.3 4 0.8
v 0.3 4 0.7
v 0.3 4.8 0.6
v 0.3 4.8 0.5
v 0.3 4.9 0.6
v 0.3 4.9 0.5
v 0.3 5.6 0.3
v 0.3 5.6 -0.3
v 0.3 5.7 0.3
v 0.3 5.7 -0.3
v 0.4 3.1 -0.7
v 0.4 3.1 -1.1
v 0.4 3.2 -0.7
v 0.4 3.2 -1.1
v 0.4 5.2 0.6
v 0.4 5.2 -0.5
v 0.4 5.3 0.6
v 0.4 5.3 -0.5
v 0.4 5.6 0.6
v 0.4 5.6 -0.5
v 0.5 1.4 -1
v 0.5 1.4 -1.4
v 0.5 1.5 -1
v 0.5 1.5 -1.4
v 0.5 3.9 -0.7
v 0.5 3.9 -0.9
v 0.5 4 -0.7
v 0.5 4 -0.9
v 0.6 4.4 0.8
v 0.6 4.4 -0.7
v 0.6 4.5 0.8
v 0.6 4.5 -0.7
v 0.6 4.8 0.8
v 0.6 4.8 -0.7
v 0.8 3.5 1
v 0.8 3.5 -0.9
v 0.8 3.6 1
v 0.8 3.6 -0.9
v 0.8 3.9 1
v 0.8 3.9 -0.9
v 0.9 1.4 1.4
v 0.9 1.4 1.3
v 0.9 1.5 1.4
v 0.9 1.5 1.3
v 1 2.2 1
v 1 2.2 0.5
v 1 2.3 1
v 1 2.3 0.5
v 1 2.7 1.2
v 1 2.7 -1.1
v 1 2.8 1.2
v 1 2.8 -1.1
v 1 3.1 1.2
v 1 3.1 -1.1
v 1.1 1.8 1.3
v 1.1 1.8 -1.2
v 1.1 1.9 1.3
v 1.1 1.9 -1.2
v 1.1 2.2 1.3
v 1.1 2.2 -1.2
v 1.3 1.4 0.4
v 1.3 1.4 -1.2
v 1.3 1.5 0.4
v 1.3 1.5 -1.2
v 1.4 1 1.6
v 1.4 1 -1.5
v 1.4 1.1 1.6
v 1.4 1.1 -1.5
v 1.4 1.4 1.6
v 1.4 1.4 -1.5
v -1.5 1 1.6
v -1.5 1.1 1.6
v -1.5 1.4 1.6
v 1.4 1 1.6
v 1.4 1.1 1.6
v 1.4 1.4 1.6
v -0.4 1.4 1.5
v -0.4 1.5 1.5
v 0.1 1.4 1.5
v 0.1 1.5 1.5
v 0.8 1.4 1.4
v 0.8 1.5 1.4
v 0.9 1.4 1.4
v 0.9 1.5 1.4
v -1.4 1.4 1.3
v -1.4 1.5 1.3
v -1.2 1.8 1.3
v -1.2 1.9 1.3
v -1.2 2.2 1.3
v -1.1 1.4 1.3
v -1.1 1.5 1.3
v 1.1 1.8 1.3
v 1.1 1.9 1.3
v 1.1 2.2 1.3
v -1.1 2.7 1.2
v -1.1 2.8 1.2
v -1.1 3.1 1.2
v 1 2.7 1.2
v 1 2.8 1.2
v 1 3.1 1.2
v -0.9 3.5 1
v -0.9 3.6 1
v -0.9 3.9 1
v -0.4 3.1 1
v -0.4 3.2 1
v -0.3 3.1 1
v -0.3 3.2 1
v -0.2 2.2 1
v -0.2 2.3 1
v 0.8 3.5 1
v 0.8 3.6 1
v 0.8 3.9 1
v 1 2.2 1
v 1 2.3 1
v -0.8 3.9 0.8
v -0.8 4 0.8
v -0.7 4.4 0.8
v -0.7 4.5 0.8
v -0.7 4.8 0.8
v -0.5 3.9 0.8
v -0.5 4 0.8
v 0.2 3.9 0.8
v 0.2 4 0.8
v 0.3 3.9 0.8
v 0.3 4 0.8
v 0.6 4.4 0.8
v 0.6 4.5 0.8
v 0.6 4.8 0.8
v -0.5 5.2 0.6
v -0.5 5.3 0.6
v -0.5 5.6 0.6
v 1.19209e-007 4.8 0.6
v 1.19209e-007 4.9 0.6
v 0.3 4.8 0.6
v 0.3 4.9 0.6
v 0.4 5.2 0.6
v 0.4 5.3 0.6
v 0.4 5.6 0.6
v 0.9 1.4 0.4
v 0.9 1.5 0.4
v 1.3 1.4 0.4
v 1.3 1.5 0.4
v -0.6 3.1 0.3
v -0.6 3.2 0.3
v -0.5 3.1 0.3
v -0.5 3.2 0.3
v -0.4 5.6 0.3
v -0.4 5.7 0.3
v 0.3 5.6 0.3
v 0.3 5.7 0.3
v -0.2 0 0.2
v -0.2 1 0.2
v -0.2 1.4 0.2
v -0.2 1.8 0.2
v -0.2 2.2 0.2
v -0.2 2.7 0.2
v -0.2 3.1 0.2
v -0.2 3.5 0.2
v -0.2 3.9 0.2
v -0.2 4.4 0.2
v -0.2 4.8 0.2
v -0.2 5.2 0.2
v 0.1 0 0.2
v 0.1 1 0.2
v 0.1 1.4 0.2
v 0.1 1.8 0.2
v 0.1 2.2 0.2
v 0.1 2.7 0.2
v 0.1 3.1 0.2
v 0.1 3.5 0.2
v 0.1 3.9 0.2
v 0.1 4.4 0.2
v 0.1 4.8 0.2
v 0.1 5.2 0.2
v -0.6 3.1 -0.7
v -0.6 3.2 -0.7
v -0.3 3.9 -0.7
v -0.3 4 -0.7
v 0.4 3.1 -0.7
v 0.4 3.2 -0.7
v 0.5 3.9 -0.7
v 0.5 4 -0.7
v -1.4 1.4 -1
v -1.4 1.5 -1
v 0.5 1.4 -1
v 0.5 1.5 -1
v -0.4 1.4 1.4
v -0.4 1.5 1.4
v 0.1 1.4 1.4
v 0.1 1.5 1.4
v 0.8 1.4 1.3
v 0.8 1.5 1.3
v 0.9 1.4 1.3
v 0.9 1.5 1.3
v -0.4 3.1 0.9
v -0.4 3.2 0.9
v -0.3 3.1 0.9
v -0.3 3.2 0.9
v 0.2 3.9 0.7
v 0.2 4 0.7
v 0.3 3.9 0.7
v 0.3 4 0.7
v -0.2 2.2 0.5
v -0.2 2.3 0.5
v 1.19209e-007 4.8 0.5
v 1.19209e-007 4.9 0.5
v 0.3 4.8 0.5
v 0.3 4.9 0.5
v 1 2.2 0.5
v 1 2.3 0.5
v -0.6 3.1 0.2
v -0.6 3.2 0.2
v -0.5 3.1 0.2
v -0.5 3.2 0.2
v -0.2 0 -0.1
v -0.2 1 -0.1
v -0.2 1.4 -0.1
v -0.2 1.8 -0.1
v -0.2 2.2 -0.1
v -0.2 2.7 -0.1
v -0.2 3.1 -0.1
v -0.2 3.5 -0.1
v -0.2 3.9 -0.1
v -0.2 4.4 -0.1
v -0.2 4.8 -0.1
v -0.2 5.2 -0.1
v 0.1 0 -0.1
v 0.1 1 -0.1
v 0.1 1.4 -0.1
v 0.1 1.8 -0.1
v 0.1 2.2 -0.1
v 0.1 2.7 -0.1
v 0.1 3.1 -0.1
v 0.1 3.5 -0.1
v 0.1 3.9 -0.1
v 0.1 4.4 -0.1
v 0.1 4.8 -0.1
v 0.1 5.2 -0.1
v -1.4 1.4 -0.2
v -1.4 1.5 -0.2
v -1.1 1.4 -0.2
v -1.1 1.5 -0.2
v -0.4 5.6 -0.3
v -0.4 5.7 -0.3
v 0.3 5.6 -0.3
v 0.3 5.7 -0.3
v -0.8 3.9 -0.4
v -0.8 4 -0.4
v -0.5 3.9 -0.4
v -0.5 4 -0.4
v -0.5 5.2 -0.5
v -0.5 5.3 -0.5
v -0.5 5.6 -0.5
v 0.4 5.2 -0.5
v 0.4 5.3 -0.5
v 0.4 5.6 -0.5
v -0.7 4.4 -0.7
v -0.7 4.5 -0.7
v -0.7 4.8 -0.7
v 0.6 4.4 -0.7
v 0.6 4.5 -0.7
v 0.6 4.8 -0.7
v -0.9 3.5 -0.9
v -0.9 3.6 -0.9
v -0.9 3.9 -0.9
v -0.3 3.9 -0.9
v -0.3 4 -0.9
v 0.5 3.9 -0.9
v 0.5 4 -0.9
v 0.8 3.5 -0.9
v 0.8 3.6 -0.9
v 0.8 3.9 -0.9
v -1.1 2.7 -1.1
v -1.1 2.8 -1.1
v -1.1 3.1 -1.1
v -0.6 3.1 -1.1
v -0.6 3.2 -1.1
v 0.4 3.1 -1.1
v 0.4 3.2 -1.1
v 1 2.7 -1.1
v 1 2.8 -1.1
v 1 3.1 -1.1
v -1.2 1.8 -1.2
v -1.2 1.9 -1.2
v -1.2 2.2 -1.2
v 0.9 1.4 -1.2
v 0.9 1.5 -1.2
v 1.1 1.8 -1.2
v 1.1 1.9 -1.2
v 1.1 2.2 -1.2
v 1.3 1.4 -1.2
v 1.3 1.5 -1.2
v -1.4 1.4 -1.4
v -1.4 1.5 -1.4
v 0.5 1.4 -1.4
v 0.5 1.5 -1.4
v -1.5 1 -1.5
v -1.5 1.1 -1.5
v -1.5 1.4 -1.5
v 1.4 1 -1.5
v 1.4 1.1 -1.5
v 1.4 1.4 -1.5
v -0.2 0 0.2
v 0.1 0 0.2
v -0.2 0 -0.1
v 0.1 0 -0.1
v -1.5 1 1.6
v 1.4 1 1.6
v -1.4 1 1.5
v 1.3 1 1.5
v -0.2 1 0.2
v 0.1 1 0.2
v -0.2 1 -0.1
v 0.1 1 -0.1
v -1.4 1 -1.4
v 1.3 1 -1.4
v -1.5 1 -1.5
v 1.4 1 -1.5
v -1.2 1.8 1.3
v 1.1 1.8 1.3
v -1.1 1.8 1.2
v 1 1.8 1.2
v -0.2 1.8 0.2
v 0.1 1.8 0.2
v -0.2 1.8 -0.1
v 0.1 1.8 -0.1
v -1.1 1.8 -1.1
v 1 1.8 -1.1
v -1.2 1.8 -1.2
v 1.1 1.8 -1.2
v -1.1 2.7 1.2
v 1 2.7 1.2
v -1 2.7 1.1
v 0.9 2.7 1.1
v -0.2 2.7 0.2
v 0.1 2.7 0.2
v -0.2 2.7 -0.1
v 0.1 2.7 -0.1
v -1 2.7 -1
v 0.9 2.7 -1
v -1.1 2.7 -1.1
v 1 2.7 -1.1
v -0.9 3.5 1
v 0.8 3.5 1
v -0.8 3.5 0.9
v 0.7 3.5 0.9
v -0.2 3.5 0.2
v 0.1 3.5 0.2
v -0.2 3.5 -0.1
v 0.1 3.5 -0.1
v -0.8 3.5 -0.8
v 0.7 3.5 -0.8
v -0.9 3.5 -0.9
v 0.8 3.5 -0.9
v -0.7 4.4 0.8
v 0.6 4.4 0.8
v -0.6 4.4 0.7
v 0.5 4.4 0.7
v -0.2 4.4 0.2
v 0.1 4.4 0.2
v -0.2 4.4 -0.1
v 0.1 4.4 -0.1
v -0.6 4.4 -0.6
v 0.5 4.4 -0.6
v -0.7 4.4 -0.7
v 0.6 4.4 -0.7
v -0.5 5.2 0.6
v 0.4 5.2 0.6
v -0.4 5.2 0.5
v 0.3 5.2 0.5
v -0.2 5.2 0.2
v 0.1 5.2 0.2
v -0.2 5.2 -0.1
v 0.1 5.2 -0.1
v -0.4 5.2 -0.4
v 0.3 5.2 -0.4
v -0.5 5.2 -0.5
v 0.4 5.2 -0.5
v -1.5 1.4 1.6
v 1.4 1.4 1.6
v -0.4 1.4 1.5
v 0.1 1.4 1.5
v -0.4 1.4 1.4
v 0.1 1.4 1.4
v 0.8 1.4 1.4
v 0.9 1.4 1.4
v -1.4 1.4 1.3
v -1.1 1.4 1.3
v 0.8 1.4 1.3
v 0.9 1.4 1.3
v 0.9 1.4 0.4
v 1.3 1.4 0.4
v -0.2 1.4 0.2
v 0.1 1.4 0.2
v -0.2 1.4 -0.1
v 0.1 1.4 -0.1
v -1.4 1.4 -0.2
v -1.1 1.4 -0.2
v -1.4 1.4 -1
v 0.5 1.4 -1
v 0.9 1.4 -1.2
v 1.3 1.4 -1.2
v -1.4 1.4 -1.4
v 0.5 1.4 -1.4
v -1.5 1.4 -1.5
v 1.4 1.4 -1.5
v -0.4 1.5 1.5
v 0.1 1.5 1.5
v -0.4 1.5 1.4
v 0.1 1.5 1.4
v 0.8 1.5 1.4
v 0.9 1.5 1.4
v -1.4 1.5 1.3
v -1.1 1.5 1.3
v 0.8 1.5 1.3
v 0.9 1.5 1.3
v 0.9 1.5 0.4
v 1.3 1.5 0.4
v -1.4 1.5 -0.2
v -1.1 1.5 -0.2
v -1.4 1.5 -1
v 0.5 1.5 -1
v 0.9 1.5 -1.2
v 1.3 1.5 -1.2
v -1.4 1.5 -1.4
v 0.5 1.5 -1.4
v -1.2 2.2 1.3
v 1.1 2.2 1.3
v -0.2 2.2 1
v 1 2.2 1
v -0.2 2.2 0.5
v 1 2.2 0.5
v -0.2 2.2 0.2
v 0.1 2.2 0.2
v -0.2 2.2 -0.1
v 0.1 2.2 -0.1
v -1.2 2.2 -1.2
v 1.1 2.2 -1.2
v -0.2 2.3 1
v 1 2.3 1
v -0.2 2.3 0.5
v 1 2.3 0.5
v -1.1 3.1 1.2
v 1 3.1 1.2
v -0.4 3.1 1
v -0.3 3.1 1
v -0.4 3.1 0.9
v -0.3 3.1 0.9
v -0.6 3.1 0.3
v -0.5 3.1 0.3
v -0.6 3.1 0.2
v -0.5 3.1 0.2
v -0.2 3.1 0.2
v 0.1 3.1 0.2
v -0.2 3.1 -0.1
v 0.1 3.1 -0.1
v -0.6 3.1 -0.7
v 0.4 3.1 -0.7
v -1.1 3.1 -1.1
v -0.6 3.1 -1.1
v 0.4 3.1 -1.1
v 1 3.1 -1.1
v -0.4 3.2 1
v -0.3 3.2 1
v -0.4 3.2 0.9
v -0.3 3.2 0.9
v -0.6 3.2 0.3
v -0.5 3.2 0.3
v -0.6 3.2 0.2
v -0.5 3.2 0.2
v -0.6 3.2 -0.7
v 0.4 3.2 -0.7
v -0.6 3.2 -1.1
v 0.4 3.2 -1.1
v -0.9 3.9 1
v 0.8 3.9 1
v -0.8 3.9 0.8
v -0.5 3.9 0.8
v 0.2 3.9 0.8
v 0.3 3.9 0.8
v 0.2 3.9 0.7
v 0.3 3.9 0.7
v -0.2 3.9 0.2
v 0.1 3.9 0.2
v -0.2 3.9 -0.1
v 0.1 3.9 -0.1
v -0.8 3.9 -0.4
v -0.5 3.9 -0.4
v -0.3 3.9 -0.7
v 0.5 3.9 -0.7
v -0.9 3.9 -0.9
v -0.3 3.9 -0.9
v 0.5 3.9 -0.9
v 0.8 3.9 -0.9
v -0.8 4 0.8
v -0.5 4 0.8
v 0.2 4 0.8
v 0.3 4 0.8
v 0.2 4 0.7
v 0.3 4 0.7
v -0.8 4 -0.4
v -0.5 4 -0.4
v -0.3 4 -0.7
v 0.5 4 -0.7
v -0.3 4 -0.9
v 0.5 4 -0.9
v -0.7 4.8 0.8
v 0.6 4.8 0.8
v 1.19209e-007 4.8 0.6
v 0.3 4.8 0.6
v 1.19209e-007 4.8 0.5
v 0.3 4.8 0.5
v -0.2 4.8 0.2
v 0.1 4.8 0.2
v -0.2 4.8 -0.1
v 0.1 4.8 -0.1
v -0.7 4.8 -0.7
v 0.6 4.8 -0.7
v 1.19209e-007 4.9 0.6
v 0.3 4.9 0.6
v 1.19209e-007 4.9 0.5
v 0.3 4.9 0.5
v -0.5 5.6 0.6
v 0.4 5.6 0.6
v -0.4 5.6 0.3
v 0.3 5.6 0.3
v -0.4 5.6 -0.3
v 0.3 5.6 -0.3
v -0.5 5.6 -0.5
v 0.4 5.6 -0.5
v -0.4 5.7 0.3
v 0.3 5.7 0.3
v -0.4 5.7 -0.3
v 0.3 5.7 -0.3

# faces
f 3/3/1 2/3/1 1/3/1
f 4/3/1 2/3/1 3/3/1
f 5/1/1 4/1/1 3/1/1
f 6/1/1 4/1/1 5/1/1
f 11/4/1 8/4/1 7/4/1
f 12/4/1 8/4/1 11/4/1
f 13/4/1 10/4/1 9/4/1
f 14/4/1 10/4/1 13/4/1
f 17/3/1 16/3/1 15/3/1
f 18/3/1 16/3/1 17/3/1
f 19/1/1 18/1/1 17/1/1
f 20/1/1 18/1/1 19/1/1
f 23/3/1 22/3/1 21/3/1
f 24/3/1 22/3/1 23/3/1
f 25/1/1 24/1/1 23/1/1
f 26/1/1 24/1/1 25/1/1
f 29/3/1 28/3/1 27/3/1
f 30/3/1 28/3/1 29/3/1
f 31/1/1 30/1/1 29/1/1
f 32/1/1 30/1/1 31/1/1
f 35/4/1 34/4/1 33/4/1
f 36/4/1 34/4/1 35/4/1
f 39/3/1 38/3/1 37/3/1
f 40/3/1 38/3/1 39/3/1
f 41/1/1 40/1/1 39/1/1
f 42/1/1 40/1/1 41/1/1
f 47/4/1 44/4/1 43/4/1
f 48/4/1 44/4/1 47/4/1
f 49/4/1 46/4/1 45/4/1
f 50/4/1 46/4/1 49/4/1
f 53/3/1 52/3/1 51/3/1
f 54/3/1 52/3/1 53/3/1
f 55/1/1 54/1/1 53/1/1
f 56/1/1 54/1/1 55/1/1
f 59/4/1 58/4/1 57/4/1
f 60/4/1 58/4/1 59/4/1
f 63/4/1 62/4/1 61/4/1
f 64/4/1 62/4/1 63/4/1
f 67/4/1 66/4/1 65/4/1
f 68/4/1 66/4/1 67/4/1
f 71/4/1 70/4/1 69/4/1
f 72/4/1 70/4/1 71/4/1
f 75/2/1 74/2/1 73/2/1
f 76/2/1 74/2/1 75/2/1
f 79/2/1 78/2/1 77/2/1
f 80/2/1 78/2/1 79/2/1
f 85/4/1 82/4/1 81/4/1
f 86/4/1 82/4/1 85/4/1
f 87/2/1 84/2/1 83/2/1
f 88/2/1 84/2/1 87/2/1
f 91/2/1 90/2/1 89/2/1
f 92/2/1 90/2/1 91/2/1
f 95/2/1 94/2/1 93/2/1
f 96/2/1 94/2/1 95/2/1
f 99/2/1 98/2/1 97/2/1
f 100/2/1 98/2/1 99/2/1
f 103/4/1 102/4/1 101/4/1
f 104/4/1 102/4/1 103/4/1
f 107/4/1 106/4/1 105/4/1
f 108/4/1 106/4/1 107/4/1
f 111/4/1 110/4/1 109/4/1
f 112/4/1 110/4/1 111/4/1
f 115/4/1 114/4/1 113/4/1
f 116/4/1 114/4/1 115/4/1
f 117/4/2 118/4/2 119/4/2
f 119/4/2 118/4/2 120/4/2
f 121/4/2 122/4/2 123/4/2
f 123/4/2 122/4/2 124/4/2
f 125/4/2 126/4/2 127/4/2
f 127/4/2 126/4/2 128/4/2
f 129/4/2 130/4/2 131/4/2
f 131/4/2 130/4/2 132/4/2
f 133/2/2 134/2/2 135/2/2
f 135/2/2 134/2/2 136/2/2
f 137/4/2 138/4/2 141/4/2
f 141/4/2 138/4/2 142/4/2
f 139/2/2 140/2/2 143/2/2
f 143/2/2 140/2/2 144/2/2
f 145/2/2 146/2/2 147/2/2
f 147/2/2 146/2/2 148/2/2
f 149/2/2 150/2/2 151/2/2
f 151/2/2 150/2/2 152/2/2
f 153/2/2 154/2/2 155/2/2
f 155/2/2 154/2/2 156/2/2
f 157/2/2 158/2/2 159/2/2
f 159/2/2 158/2/2 160/2/2
f 161/4/2 162/4/2 163/4/2
f 163/4/2 162/4/2 164/4/2
f 165/4/2 166/4/2 167/4/2
f 167/4/2 166/4/2 168/4/2
f 169/4/2 170/4/2 171/4/2
f 171/4/2 170/4/2 172/4/2
f 173/4/2 174/4/2 175/4/2
f 175/4/2 174/4/2 176/4/2
f 177/3/2 178/3/2 179/3/2
f 179/3/2 178/3/2 180/3/2
f 179/1/2 180/1/2 181/1/2
f 181/1/2 180/1/2 182/1/2
f 183/4/2 184/4/2 185/4/2
f 185/4/2 184/4/2 186/4/2
f 187/4/2 188/4/2 189/4/2
f 189/4/2 188/4/2 190/4/2
f 191/3/2 192/3/2 193/3/2
f 193/3/2 192/3/2 194/3/2
f 193/1/2 194/1/2 195/1/2
f 195/1/2 194/1/2 196/1/2
f 197/3/2 198/3/2 199/3/2
f 199/3/2 198/3/2 200/3/2
f 199/1/2 200/1/2 201/1/2
f 201/1/2 200/1/2 202/1/2
f 203/4/2 204/4/2 205/4/2
f 205/4/2 204/4/2 206/4/2
f 207/4/2 208/4/2 209/4/2
f 209/4/2 208/4/2 210/4/2
f 211/3/2 212/3/2 213/3/2
f 213/3/2 212/3/2 214/3/2
f 213/1/2 214/1/2 215/1/2
f 215/1/2 214/1/2 216/1/2
f 217/3/2 218/3/2 219/3/2
f 219/3/2 218/3/2 220/3/2
f 219/1/2 220/1/2 221/1/2
f 221/1/2 220/1/2 222/1/2
f 223/4/2 224/4/2 225/4/2
f 225/4/2 224/4/2 226/4/2
f 227/3/2 228/3/2 229/3/2
f 229/3/2 228/3/2 230/3/2
f 229/1/2 230/1/2 231/1/2
f 231/1/2 230/1/2 232/1/2
f 236/3/3 234/3/3 233/3/3
f 237/1/3 235/1/3 234/1/3
f 237/3/3 234/3/3 236/3/3
f 238/1/3 235/1/3 237/1/3
f 241/4/3 240/4/3 239/4/3
f 242/4/3 240/4/3 241/4/3
f 245/4/3 244/4/3 243/4/3
f 246/4/3 244/4/3 245/4/3
f 252/4/3 248/4/3 247/4/3
f 253/4/3 248/4/3 252/4/3
f 254/3/3 250/3/3 249/3/3
f 255/1/3 251/1/3 250/1/3
f 255/3/3 250/3/3 254/3/3
f 256/1/3 251/1/3 255/1/3
f 260/3/3 258/3/3 257/3/3
f 261/1/3 259/1/3 258/1/3
f 261/3/3 258/3/3 260/3/3
f 262/1/3 259/1/3 261/1/3
f 268/4/3 267/4/3 266/4/3
f 269/4/3 267/4/3 268/4/3
f 272/3/3 264/3/3 263/3/3
f 273/1/3 265/1/3 264/1/3
f 273/3/3 264/3/3 272/3/3
f 274/1/3 265/1/3 273/1/3
f 275/4/3 271/4/3 270/4/3
f 276/4/3 271/4/3 275/4/3
f 282/4/3 278/4/3 277/4/3
f 283/4/3 278/4/3 282/4/3
f 286/4/3 285/4/3 284/4/3
f 287/4/3 285/4/3 286/4/3
f 288/3/3 280/3/3 279/3/3
f 289/1/3 281/1/3 280/1/3
f 289/3/3 280/3/3 288/3/3
f 290/1/3 281/1/3 289/1/3
f 296/4/3 295/4/3 294/4/3
f 297/4/3 295/4/3 296/4/3
f 298/3/3 292/3/3 291/3/3
f 299/1/3 293/1/3 292/1/3
f 299/3/3 292/3/3 298/3/3
f 300/1/3 293/1/3 299/1/3
f 303/4/3 302/4/3 301/4/3
f 304/4/3 302/4/3 303/4/3
f 307/4/3 306/4/3 305/4/3
f 308/4/3 306/4/3 307/4/3
f 311/4/3 310/4/3 309/4/3
f 312/4/3 310/4/3 311/4/3
f 325/2/3 314/2/3 313/2/3
f 326/2/3 314/2/3 325/2/3
f 327/2/3 316/2/3 315/2/3
f 328/2/3 316/2/3 327/2/3
f 329/2/3 318/2/3 317/2/3
f 330/2/3 318/2/3 329/2/3
f 331/2/3 320/2/3 319/2/3
f 332/2/3 320/2/3 331/2/3
f 333/2/3 322/2/3 321/2/3
f 334/2/3 322/2/3 333/2/3
f 335/2/3 324/2/3 323/2/3
f 336/2/3 324/2/3 335/2/3
f 341/4/3 338/4/3 337/4/3
f 342/4/3 338/4/3 341/4/3
f 343/4/3 340/4/3 339/4/3
f 344/4/3 340/4/3 343/4/3
f 347/4/3 346/4/3 345/4/3
f 348/4/3 346/4/3 347/4/3
f 349/4/4 350/4/4 351/4/4
f 351/4/4 350/4/4 352/4/4
f 353/4/4 354/4/4 355/4/4
f 355/4/4 354/4/4 356/4/4
f 357/4/4 358/4/4 359/4/4
f 359/4/4 358/4/4 360/4/4
f 361/4/4 362/4/4 363/4/4
f 363/4/4 362/4/4 364/4/4
f 367/4/4 368/4/4 369/4/4
f 369/4/4 368/4/4 370/4/4
f 365/4/4 366/4/4 371/4/4
f 371/4/4 366/4/4 372/4/4
f 373/4/4 374/4/4 375/4/4
f 375/4/4 374/4/4 376/4/4
f 377/2/4 378/2/4 389/2/4
f 389/2/4 378/2/4 390/2/4
f 379/2/4 380/2/4 391/2/4
f 391/2/4 380/2/4 392/2/4
f 381/2/4 382/2/4 393/2/4
f 393/2/4 382/2/4 394/2/4
f 383/2/4 384/2/4 395/2/4
f 395/2/4 384/2/4 396/2/4
f 385/2/4 386/2/4 397/2/4
f 397/2/4 386/2/4 398/2/4
f 387/2/4 388/2/4 399/2/4
f 399/2/4 388/2/4 400/2/4
f 401/4/4 402/4/4 403/4/4
f 403/4/4 402/4/4 404/4/4
f 405/4/4 406/4/4 407/4/4
f 407/4/4 406/4/4 408/4/4
f 409/4/4 410/4/4 411/4/4
f 411/4/4 410/4/4 412/4/4
f 413/3/4 414/3/4 416/3/4
f 414/1/4 415/1/4 417/1/4
f 416/3/4 414/3/4 417/3/4
f 417/1/4 415/1/4 418/1/4
f 419/3/4 420/3/4 422/3/4
f 420/1/4 421/1/4 423/1/4
f 422/3/4 420/3/4 423/3/4
f 423/1/4 421/1/4 424/1/4
f 426/1/4 427/1/4 428/1/4
f 426/1/4 428/1/4 430/1/4
f 428/4/4 429/4/4 430/4/4
f 430/4/4 429/4/4 431/4/4
f 425/3/4 426/3/4 432/3/4
f 426/1/4 430/1/4 433/1/4
f 432/3/4 426/3/4 433/3/4
f 433/1/4 430/1/4 434/1/4
f 436/1/4 437/1/4 438/1/4
f 436/1/4 438/1/4 440/1/4
f 438/4/4 439/4/4 440/4/4
f 440/4/4 439/4/4 441/4/4
f 435/3/4 436/3/4 442/3/4
f 436/1/4 440/1/4 443/1/4
f 442/3/4 436/3/4 443/3/4
f 443/1/4 440/1/4 444/1/4
f 445/3/4 446/3/4 450/3/4
f 446/1/4 447/1/4 451/1/4
f 450/3/4 446/3/4 451/3/4
f 451/1/4 447/1/4 452/1/4
f 448/4/4 449/4/4 453/4/4
f 453/4/4 449/4/4 454/4/4
f 455/4/4 456/4/4 457/4/4
f 457/4/4 456/4/4 458/4/4
f 459/3/4 460/3/4 462/3/4
f 460/1/4 461/1/4 463/1/4
f 462/3/4 460/3/4 463/3/4
f 463/1/4 461/1/4 464/1/4
f 467/2/5 466/2/5 465/2/5
f 468/2/5 466/2/5 467/2/5
f 471/3/5 470/3/5 469/3/5
f 472/3/5 470/3/5 471/3/5
f 473/1/5 472/1/5 471/1/5
f 474/1/5 472/1/5 473/1/5
f 475/1/5 473/1/5 471/1/5
f 476/1/5 472/1/5 474/1/5
f 477/3/5 471/3/5 469/3/5
f 477/1/5 476/1/5 475/1/5
f 477/1/5 475/1/5 471/1/5
f 478/1/5 472/1/5 476/1/5
f 478/1/5 476/1/5 477/1/5
f 478/3/5 470/3/5 472/3/5
f 479/3/5 477/3/5 469/3/5
f 479/3/5 478/3/5 477/3/5
f 480/3/5 470/3/5 478/3/5
f 480/3/5 478/3/5 479/3/5
f 483/3/5 482/3/5 481/3/5
f 484/3/5 482/3/5 483/3/5
f 485/1/5 484/1/5 483/1/5
f 486/1/5 484/1/5 485/1/5
f 487/1/5 485/1/5 483/1/5
f 488/1/5 484/1/5 486/1/5
f 489/3/5 483/3/5 481/3/5
f 489/1/5 488/1/5 487/1/5
f 489/1/5 487/1/5 483/1/5
f 490/1/5 484/1/5 488/1/5
f 490/1/5 488/1/5 489/1/5
f 490/3/5 482/3/5 484/3/5
f 491/3/5 489/3/5 481/3/5
f 491/3/5 490/3/5 489/3/5
f 492/3/5 482/3/5 490/3/5
f 492/3/5 490/3/5 491/3/5
f 495/3/5 494/3/5 493/3/5
f 496/3/5 494/3/5 495/3/5
f 497/1/5 496/1/5 495/1/5
f 498/1/5 496/1/5 497/1/5
f 499/1/5 497/1/5 495/1/5
f 500/1/5 496/1/5 498/1/5
f 501/3/5 495/3/5 493/3/5
f 501/1/5 500/1/5 499/1/5
f 501/1/5 499/1/5 495/1/5
f 502/1/5 496/1/5 500/1/5
f 502/1/5 500/1/5 501/1/5
f 502/3/5 494/3/5 496/3/5
f 503/3/5 501/3/5 493/3/5
f 503/3/5 502/3/5 501/3/5
f 504/3/5 494/3/5 502/3/5
f 504/3/5 502/3/5 503/3/5
f 507/3/5 506/3/5 505/3/5
f 508/3/5 506/3/5 507/3/5
f 509/1/5 508/1/5 507/1/5
f 510/1/5 508/1/5 509/1/5
f 511/1/5 509/1/5 507/1/5
f 512/1/5 508/1/5 510/1/5
f 513/3/5 507/3/5 505/3/5
f 513/1/5 512/1/5 511/1/5
f 513/1/5 511/1/5 507/1/5
f 514/1/5 508/1/5 512/1/5
f 514/1/5 512/1/5 513/1/5
f 514/3/5 506/3/5 508/3/5
f 515/3/5 513/3/5 505/3/5
f 515/3/5 514/3/5 513/3/5
f 516/3/5 506/3/5 514/3/5
f 516/3/5 514/3/5 515/3/5
f 519/3/5 518/3/5 517/3/5
f 520/3/5 518/3/5 519/3/5
f 521/1/5 520/1/5 519/1/5
f 522/1/5 520/1/5 521/1/5
f 523/1/5 521/1/5 519/1/5
f 524/1/5 520/1/5 522/1/5
f 525/3/5 519/3/5 517/3/5
f 525/1/5 524/1/5 523/1/5
f 525/1/5 523/1/5 519/1/5
f 526/1/5 520/1/5 524/1/5
f 526/1/5 524/1/5 525/1/5
f 526/3/5 518/3/5 520/3/5
f 527/3/5 525/3/5 517/3/5
f 527/3/5 526/3/5 525/3/5
f 528/3/5 518/3/5 526/3/5
f 528/3/5 526/3/5 527/3/5
f 531/3/5 530/3/5 529/3/5
f 532/3/5 530/3/5 531/3/5
f 533/1/5 532/1/5 531/1/5
f 534/1/5 532/1/5 533/1/5
f 535/1/5 533/1/5 531/1/5
f 536/1/5 532/1/5 534/1/5
f 537/3/5 531/3/5 529/3/5
f 537/1/5 536/1/5 535/1/5
f 537/1/5 535/1/5 531/1/5
f 538/1/5 532/1/5 536/1/5
f 538/1/5 536/1/5 537/1/5
f 538/3/5 530/3/5 532/3/5
f 539/3/5 537/3/5 529/3/5
f 539/3/5 538/3/5 537/3/5
f 540/3/5 530/3/5 538/3/5
f 540/3/5 538/3/5 539/3/5
f 541/1/6 542/1/6 543/1/6
f 543/1/6 542/1/6 544/1/6
f 541/1/6 543/1/6 545/1/6
f 544/1/6 542/1/6 546/1/6
f 546/1/6 542/1/6 547/1/6
f 547/1/6 542/1/6 548/1/6
f 541/1/6 545/1/6 549/1/6
f 545/1/6 546/1/6 549/1/6
f 546/1/6 547/1/6 549/1/6
f 549/1/6 547/1/6 550/1/6
f 550/1/6 547/1/6 551/1/6
f 548/1/6 542/1/6 552/1/6
f 550/1/6 551/1/6 553/1/6
f 551/1/6 552/1/6 553/1/6
f 552/1/6 542/1/6 553/1/6
f 553/1/6 542/1/6 554/1/6
f 550/1/6 553/1/6 555/1/6
f 555/1/6 553/1/6 556/1/6
f 550/1/6 555/1/6 557/1/6
f 556/1/6 553/1/6 558/1/6
f 541/1/6 549/1/6 559/1/6
f 557/1/6 558/1/6 560/1/6
f 550/1/6 557/1/6 560/1/6
f 541/1/6 559/1/6 561/1/6
f 559/1/6 560/1/6 561/1/6
f 560/1/6 558/1/6 562/1/6
f 561/1/6 560/1/6 562/1/6
f 558/1/6 553/1/6 562/1/6
f 562/1/6 553/1/6 563/1/6
f 554/1/6 542/1/6 564/1/6
f 541/1/6 561/1/6 565/1/6
f 563/1/6 564/1/6 566/1/6
f 562/1/6 563/1/6 566/1/6
f 541/1/6 565/1/6 567/1/6
f 565/1/6 566/1/6 567/1/6
f 566/1/6 564/1/6 568/1/6
f 567/1/6 566/1/6 568/1/6
f 564/1/6 542/1/6 568/1/6
f 569/4/6 570/4/6 571/4/6
f 571/4/6 570/4/6 572/4/6
f 573/4/6 574/4/6 577/4/6
f 577/4/6 574/4/6 578/4/6
f 575/4/6 576/4/6 581/4/6
f 581/4/6 576/4/6 582/4/6
f 579/4/6 580/4/6 585/4/6
f 585/4/6 580/4/6 586/4/6
f 583/4/6 584/4/6 587/4/6
f 587/4/6 584/4/6 588/4/6
f 589/1/6 590/1/6 591/1/6
f 591/1/6 590/1/6 592/1/6
f 589/1/6 591/1/6 593/1/6
f 592/1/6 590/1/6 594/1/6
f 589/1/6 593/1/6 595/1/6
f 593/1/6 594/1/6 595/1/6
f 595/1/6 594/1/6 596/1/6
f 589/1/6 595/1/6 597/1/6
f 596/1/6 594/1/6 598/1/6
f 589/1/6 597/1/6 599/1/6
f 597/1/6 598/1/6 599/1/6
f 594/1/6 590/1/6 600/1/6
f 599/1/6 598/1/6 600/1/6
f 598/1/6 594/1/6 600/1/6
f 601/4/6 602/4/6 603/4/6
f 603/4/6 602/4/6 604/4/6
f 605/1/6 606/1/6 607/1/6
f 607/1/6 606/1/6 608/1/6
f 605/1/6 607/1/6 609/1/6
f 608/1/6 606/1/6 610/1/6
f 605/1/6 609/1/6 611/1/6
f 609/1/6 610/1/6 611/1/6
f 611/1/6 610/1/6 612/1/6
f 605/1/6 611/1/6 613/1/6
f 612/1/6 610/1/6 614/1/6
f 610/1/6 606/1/6 615/1/6
f 614/1/6 610/1/6 615/1/6
f 615/1/6 606/1/6 616/1/6
f 613/1/6 614/1/6 617/1/6
f 614/1/6 615/1/6 617/1/6
f 616/1/6 606/1/6 618/1/6
f 613/1/6 617/1/6 619/1/6
f 617/1/6 618/1/6 619/1/6
f 605/1/6 613/1/6 619/1/6
f 618/1/6 606/1/6 620/1/6
f 619/1/6 618/1/6 620/1/6
f 605/1/6 619/1/6 621/1/6
f 621/1/6 619/1/6 622/1/6
f 620/1/6 606/1/6 623/1/6
f 623/1/6 606/1/6 624/1/6
f 625/4/6 626/4/6 627/4/6
f 627/4/6 626/4/6 628/4/6
f 629/4/6 630/4/6 631/4/6
f 631/4/6 630/4/6 632/4/6
f 633/4/6 634/4/6 635/4/6
f 635/4/6 634/4/6 636/4/6
f 637/1/6 638/1/6 639/1/6
f 639/1/6 638/1/6 640/1/6
f 640/1/6 638/1/6 641/1/6
f 641/1/6 638/1/6 642/1/6
f 640/1/6 641/1/6 643/1/6
f 642/1/6 638/1/6 644/1/6
f 640/1/6 643/1/6 645/1/6
f 643/1/6 644/1/6 645/1/6
f 645/1/6 644/1/6 646/1/6
f 640/1/6 645/1/6 647/1/6
f 646/1/6 644/1/6 648/1/6
f 637/1/6 639/1/6 649/1/6
f 647/1/6 648/1/6 650/1/6
f 640/1/6 647/1/6 650/1/6
f 650/1/6 648/1/6 651/1/6
f 649/1/6 650/1/6 651/1/6
f 644/1/6 638/1/6 652/1/6
f 651/1/6 648/1/6 652/1/6
f 648/1/6 644/1/6 652/1/6
f 637/1/6 649/1/6 653/1/6
f 649/1/6 651/1/6 653/1/6
f 653/1/6 651/1/6 654/1/6
f 652/1/6 638/1/6 655/1/6
f 655/1/6 638/1/6 656/1/6
f 659/4/6 660/4/6 661/4/6
f 661/4/6 660/4/6 662/4/6
f 657/4/6 658/4/6 663/4/6
f 663/4/6 658/4/6 664/4/6
f 665/4/6 666/4/6 667/4/6
f 667/4/6 666/4/6 668/4/6
f 669/1/6 670/1/6 671/1/6
f 671/1/6 670/1/6 672/1/6
f 669/1/6 671/1/6 673/1/6
f 672/1/6 670/1/6 674/1/6
f 669/1/6 673/1/6 675/1/6
f 673/1/6 674/1/6 675/1/6
f 675/1/6 674/1/6 676/1/6
f 669/1/6 675/1/6 677/1/6
f 676/1/6 674/1/6 678/1/6
f 669/1/6 677/1/6 679/1/6
f 677/1/6 678/1/6 679/1/6
f 674/1/6 670/1/6 680/1/6
f 679/1/6 678/1/6 680/1/6
f 678/1/6 674/1/6 680/1/6
f 681/4/6 682/4/6 683/4/6
f 683/4/6 682/4/6 684/4/6
f 685/1/6 686/1/6 687/1/6
f 687/1/6 686/1/6 688/1/6
f 685/1/6 687/1/6 689/1/6
f 688/1/6 686/1/6 690/1/6
f 685/1/6 689/1/6 691/1/6
f 689/1/6 690/1/6 691/1/6
f 690/1/6 686/1/6 692/1/6
f 691/1/6 690/1/6 692/1/6
f 693/4/6 694/4/6 695/4/6
f 695/4/6 694/4/6 696/4/6
